<svg width="702" height="408" viewBox="0 0 702 408" fill="none" xmlns="http://www.w3.org/2000/svg">
<g clip-path="url(#clip0_609_2)">
<rect width="702" height="408" rx="10" fill="white"/>
<g opacity="0.3">
<path d="M676.487 36.0126C675.804 35.3292 674.696 35.3292 674.013 36.0126C673.329 36.696 673.329 37.804 674.013 38.4874C674.696 39.1709 675.804 39.1709 676.487 38.4874C677.171 37.8041 677.171 36.696 676.487 36.0126Z" fill="#030229"/>
<path d="M671.237 36.0126C670.554 35.3292 669.446 35.3292 668.763 36.0126C668.079 36.696 668.079 37.804 668.763 38.4874C669.446 39.1709 670.554 39.1709 671.237 38.4874C671.921 37.8041 671.921 36.696 671.237 36.0126" fill="#030229"/>
<path d="M665.987 36.0126C665.304 35.3292 664.196 35.3292 663.513 36.0126C662.829 36.696 662.829 37.804 663.513 38.4874C664.196 39.1709 665.304 39.1709 665.987 38.4874C666.671 37.8041 666.671 36.696 665.987 36.0126" fill="#030229"/>
</g>
<line opacity="0.05" x1="62" y1="344.5" x2="702" y2="344.5" stroke="#030229"/>
<line opacity="0.05" x1="62" y1="293.5" x2="702" y2="293.5" stroke="#030229"/>
<line opacity="0.05" x1="62" y1="242.5" x2="702" y2="242.5" stroke="#030229"/>
<line opacity="0.05" x1="62" y1="191.5" x2="702" y2="191.5" stroke="#030229"/>
<line opacity="0.05" x1="62" y1="140.5" x2="702" y2="140.5" stroke="#030229"/>
<line opacity="0.05" x1="62" y1="89.5" x2="702" y2="89.5" stroke="#030229"/>
<g opacity="0.7">
<path opacity="0.7" d="M30.3181 93.172C30.4621 93.172 30.5741 93.208 30.6541 93.28C30.7341 93.352 30.7741 93.452 30.7741 93.58C30.7741 93.716 30.7341 93.82 30.6541 93.892C30.5821 93.964 30.4701 94 30.3181 94H26.3461C26.1941 94 26.0781 93.964 25.9981 93.892C25.9261 93.82 25.8901 93.716 25.8901 93.58C25.8901 93.452 25.9301 93.352 26.0101 93.28C26.0901 93.208 26.2021 93.172 26.3461 93.172H27.8341V86.74L26.5261 87.592C26.4621 87.632 26.3981 87.652 26.3341 87.652C26.2221 87.652 26.1221 87.6 26.0341 87.496C25.9541 87.392 25.9141 87.28 25.9141 87.16C25.9141 86.992 25.9781 86.872 26.1061 86.8L27.9301 85.612C28.0661 85.524 28.2061 85.48 28.3501 85.48C28.4861 85.48 28.5981 85.524 28.6861 85.612C28.7741 85.7 28.8181 85.824 28.8181 85.984V93.172H30.3181ZM35.2094 94.096C34.2414 94.096 33.5054 93.728 33.0014 92.992C32.4974 92.256 32.2454 91.184 32.2454 89.776C32.2454 88.36 32.4974 87.284 33.0014 86.548C33.5054 85.812 34.2414 85.444 35.2094 85.444C36.1774 85.444 36.9134 85.812 37.4174 86.548C37.9214 87.276 38.1734 88.348 38.1734 89.764C38.1734 91.18 37.9214 92.256 37.4174 92.992C36.9134 93.728 36.1774 94.096 35.2094 94.096ZM35.2094 93.268C35.8814 93.268 36.3774 92.984 36.6974 92.416C37.0174 91.848 37.1774 90.964 37.1774 89.764C37.1774 88.556 37.0174 87.672 36.6974 87.112C36.3854 86.552 35.8894 86.272 35.2094 86.272C34.5374 86.272 34.0414 86.556 33.7214 87.124C33.4014 87.684 33.2414 88.564 33.2414 89.764C33.2414 90.964 33.4014 91.848 33.7214 92.416C34.0414 92.984 34.5374 93.268 35.2094 93.268ZM42.4047 94.096C41.4367 94.096 40.7007 93.728 40.1967 92.992C39.6927 92.256 39.4407 91.184 39.4407 89.776C39.4407 88.36 39.6927 87.284 40.1967 86.548C40.7007 85.812 41.4367 85.444 42.4047 85.444C43.3727 85.444 44.1087 85.812 44.6127 86.548C45.1167 87.276 45.3687 88.348 45.3687 89.764C45.3687 91.18 45.1167 92.256 44.6127 92.992C44.1087 93.728 43.3727 94.096 42.4047 94.096ZM42.4047 93.268C43.0767 93.268 43.5727 92.984 43.8927 92.416C44.2127 91.848 44.3727 90.964 44.3727 89.764C44.3727 88.556 44.2127 87.672 43.8927 87.112C43.5807 86.552 43.0847 86.272 42.4047 86.272C41.7327 86.272 41.2367 86.556 40.9167 87.124C40.5967 87.684 40.4367 88.564 40.4367 89.764C40.4367 90.964 40.5967 91.848 40.9167 92.416C41.2367 92.984 41.7327 93.268 42.4047 93.268Z" fill="#030229"/>
<path opacity="0.7" d="M36.6734 140.656C37.1694 140.808 37.5534 141.068 37.8254 141.436C38.1054 141.804 38.2454 142.244 38.2454 142.756C38.2454 143.484 37.9814 144.056 37.4534 144.472C36.9254 144.88 36.1774 145.084 35.2094 145.084C34.2414 145.084 33.4934 144.88 32.9654 144.472C32.4374 144.056 32.1734 143.484 32.1734 142.756C32.1734 142.236 32.3134 141.792 32.5934 141.424C32.8734 141.056 33.2614 140.8 33.7574 140.656C33.3334 140.496 32.9974 140.244 32.7494 139.9C32.5014 139.556 32.3774 139.152 32.3774 138.688C32.3774 138 32.6254 137.456 33.1214 137.056C33.6254 136.648 34.3214 136.444 35.2094 136.444C36.0974 136.444 36.7894 136.648 37.2854 137.056C37.7894 137.456 38.0414 138 38.0414 138.688C38.0414 139.152 37.9174 139.56 37.6694 139.912C37.4214 140.256 37.0894 140.504 36.6734 140.656ZM33.3494 138.76C33.3494 139.256 33.5054 139.636 33.8174 139.9C34.1374 140.164 34.6014 140.296 35.2094 140.296C35.8174 140.296 36.2774 140.164 36.5894 139.9C36.9094 139.636 37.0694 139.256 37.0694 138.76C37.0694 138.288 36.9094 137.92 36.5894 137.656C36.2774 137.392 35.8174 137.26 35.2094 137.26C34.6014 137.26 34.1374 137.392 33.8174 137.656C33.5054 137.92 33.3494 138.288 33.3494 138.76ZM35.2094 144.268C36.5854 144.268 37.2734 143.744 37.2734 142.696C37.2734 141.648 36.5854 141.124 35.2094 141.124C33.8334 141.124 33.1454 141.648 33.1454 142.696C33.1454 143.744 33.8334 144.268 35.2094 144.268ZM42.4047 145.096C41.4367 145.096 40.7007 144.728 40.1967 143.992C39.6927 143.256 39.4407 142.184 39.4407 140.776C39.4407 139.36 39.6927 138.284 40.1967 137.548C40.7007 136.812 41.4367 136.444 42.4047 136.444C43.3727 136.444 44.1087 136.812 44.6127 137.548C45.1167 138.276 45.3687 139.348 45.3687 140.764C45.3687 142.18 45.1167 143.256 44.6127 143.992C44.1087 144.728 43.3727 145.096 42.4047 145.096ZM42.4047 144.268C43.0767 144.268 43.5727 143.984 43.8927 143.416C44.2127 142.848 44.3727 141.964 44.3727 140.764C44.3727 139.556 44.2127 138.672 43.8927 138.112C43.5807 137.552 43.0847 137.272 42.4047 137.272C41.7327 137.272 41.2367 137.556 40.9167 138.124C40.5967 138.684 40.4367 139.564 40.4367 140.764C40.4367 141.964 40.5967 142.848 40.9167 143.416C41.2367 143.984 41.7327 144.268 42.4047 144.268Z" fill="#030229"/>
<path opacity="0.7" d="M35.5691 190.684C36.0811 190.684 36.5371 190.796 36.9371 191.02C37.3371 191.244 37.6491 191.56 37.8731 191.968C38.0971 192.376 38.2091 192.844 38.2091 193.372C38.2091 193.892 38.0931 194.36 37.8611 194.776C37.6291 195.192 37.3051 195.516 36.8891 195.748C36.4731 195.98 36.0051 196.096 35.4851 196.096C34.4611 196.096 33.6691 195.74 33.1091 195.028C32.5571 194.316 32.2811 193.3 32.2811 191.98C32.2811 191.036 32.4091 190.224 32.6651 189.544C32.9211 188.864 33.2931 188.344 33.7811 187.984C34.2691 187.624 34.8491 187.444 35.5211 187.444C35.9771 187.444 36.4291 187.532 36.8771 187.708C37.3331 187.884 37.7211 188.124 38.0411 188.428C38.1771 188.556 38.2451 188.692 38.2451 188.836C38.2451 188.956 38.2131 189.056 38.1491 189.136C38.0851 189.216 38.0091 189.256 37.9211 189.256C37.8091 189.256 37.6931 189.212 37.5731 189.124C36.8771 188.556 36.2011 188.272 35.5451 188.272C34.8331 188.272 34.2771 188.596 33.8771 189.244C33.4771 189.892 33.2771 190.8 33.2771 191.968V192.124C33.4611 191.676 33.7571 191.324 34.1651 191.068C34.5811 190.812 35.0491 190.684 35.5691 190.684ZM35.4371 195.268C35.9811 195.268 36.4171 195.096 36.7451 194.752C37.0731 194.408 37.2371 193.952 37.2371 193.384C37.2371 192.816 37.0691 192.364 36.7331 192.028C36.4051 191.684 35.9691 191.512 35.4251 191.512C34.8731 191.512 34.4211 191.688 34.0691 192.04C33.7251 192.384 33.5531 192.832 33.5531 193.384C33.5531 193.944 33.7251 194.4 34.0691 194.752C34.4211 195.096 34.8771 195.268 35.4371 195.268ZM42.4047 196.096C41.4367 196.096 40.7007 195.728 40.1967 194.992C39.6927 194.256 39.4407 193.184 39.4407 191.776C39.4407 190.36 39.6927 189.284 40.1967 188.548C40.7007 187.812 41.4367 187.444 42.4047 187.444C43.3727 187.444 44.1087 187.812 44.6127 188.548C45.1167 189.276 45.3687 190.348 45.3687 191.764C45.3687 193.18 45.1167 194.256 44.6127 194.992C44.1087 195.728 43.3727 196.096 42.4047 196.096ZM42.4047 195.268C43.0767 195.268 43.5727 194.984 43.8927 194.416C44.2127 193.848 44.3727 192.964 44.3727 191.764C44.3727 190.556 44.2127 189.672 43.8927 189.112C43.5807 188.552 43.0847 188.272 42.4047 188.272C41.7327 188.272 41.2367 188.556 40.9167 189.124C40.5967 189.684 40.4367 190.564 40.4367 191.764C40.4367 192.964 40.5967 193.848 40.9167 194.416C41.2367 194.984 41.7327 195.268 42.4047 195.268Z" fill="#030229"/>
<path opacity="0.7" d="M38.0054 244.348C38.1494 244.348 38.2614 244.388 38.3414 244.468C38.4214 244.54 38.4614 244.636 38.4614 244.756C38.4614 245.028 38.3094 245.164 38.0054 245.164H37.1054V246.556C37.1054 246.716 37.0574 246.84 36.9614 246.928C36.8734 247.016 36.7574 247.06 36.6134 247.06C36.4694 247.06 36.3534 247.016 36.2654 246.928C36.1774 246.84 36.1334 246.716 36.1334 246.556V245.164H32.5814C32.4374 245.164 32.3254 245.124 32.2454 245.044C32.1654 244.964 32.1254 244.864 32.1254 244.744C32.1254 244.632 32.1694 244.508 32.2574 244.372L36.1814 238.696C36.2934 238.552 36.4374 238.48 36.6134 238.48C36.7494 238.48 36.8654 238.524 36.9614 238.612C37.0574 238.7 37.1054 238.824 37.1054 238.984V244.348H38.0054ZM33.2414 244.348H36.1334V240.184L33.2414 244.348ZM42.4047 247.096C41.4367 247.096 40.7007 246.728 40.1967 245.992C39.6927 245.256 39.4407 244.184 39.4407 242.776C39.4407 241.36 39.6927 240.284 40.1967 239.548C40.7007 238.812 41.4367 238.444 42.4047 238.444C43.3727 238.444 44.1087 238.812 44.6127 239.548C45.1167 240.276 45.3687 241.348 45.3687 242.764C45.3687 244.18 45.1167 245.256 44.6127 245.992C44.1087 246.728 43.3727 247.096 42.4047 247.096ZM42.4047 246.268C43.0767 246.268 43.5727 245.984 43.8927 245.416C44.2127 244.848 44.3727 243.964 44.3727 242.764C44.3727 241.556 44.2127 240.672 43.8927 240.112C43.5807 239.552 43.0847 239.272 42.4047 239.272C41.7327 239.272 41.2367 239.556 40.9167 240.124C40.5967 240.684 40.4367 241.564 40.4367 242.764C40.4367 243.964 40.5967 244.848 40.9167 245.416C41.2367 245.984 41.7327 246.268 42.4047 246.268Z" fill="#030229"/>
<path opacity="0.7" d="M37.7054 297.172C37.8494 297.172 37.9614 297.208 38.0414 297.28C38.1214 297.352 38.1614 297.452 38.1614 297.58C38.1614 297.86 38.0094 298 37.7054 298H33.0014C32.8654 298 32.7534 297.96 32.6654 297.88C32.5774 297.792 32.5334 297.688 32.5334 297.568C32.5334 297.416 32.5894 297.284 32.7014 297.172L35.5934 293.992C35.9934 293.544 36.2814 293.144 36.4574 292.792C36.6414 292.432 36.7334 292.072 36.7334 291.712C36.7334 291.248 36.5974 290.892 36.3254 290.644C36.0614 290.396 35.6854 290.272 35.1974 290.272C34.8134 290.272 34.4454 290.344 34.0934 290.488C33.7414 290.624 33.3894 290.836 33.0374 291.124C32.9174 291.22 32.8054 291.268 32.7014 291.268C32.6134 291.268 32.5374 291.228 32.4734 291.148C32.4094 291.06 32.3774 290.956 32.3774 290.836C32.3774 290.668 32.4414 290.532 32.5694 290.428C32.8974 290.124 33.2974 289.884 33.7694 289.708C34.2414 289.532 34.7254 289.444 35.2214 289.444C35.9814 289.444 36.5854 289.644 37.0334 290.044C37.4894 290.444 37.7174 290.984 37.7174 291.664C37.7174 292.152 37.6054 292.62 37.3814 293.068C37.1654 293.516 36.8054 294.016 36.3014 294.568L33.9014 297.172H37.7054ZM42.4047 298.096C41.4367 298.096 40.7007 297.728 40.1967 296.992C39.6927 296.256 39.4407 295.184 39.4407 293.776C39.4407 292.36 39.6927 291.284 40.1967 290.548C40.7007 289.812 41.4367 289.444 42.4047 289.444C43.3727 289.444 44.1087 289.812 44.6127 290.548C45.1167 291.276 45.3687 292.348 45.3687 293.764C45.3687 295.18 45.1167 296.256 44.6127 296.992C44.1087 297.728 43.3727 298.096 42.4047 298.096ZM42.4047 297.268C43.0767 297.268 43.5727 296.984 43.8927 296.416C44.2127 295.848 44.3727 294.964 44.3727 293.764C44.3727 292.556 44.2127 291.672 43.8927 291.112C43.5807 290.552 43.0847 290.272 42.4047 290.272C41.7327 290.272 41.2367 290.556 40.9167 291.124C40.5967 291.684 40.4367 292.564 40.4367 293.764C40.4367 294.964 40.5967 295.848 40.9167 296.416C41.2367 296.984 41.7327 297.268 42.4047 297.268Z" fill="#030229"/>
<path opacity="0.7" d="M42.4047 349.096C41.4367 349.096 40.7007 348.728 40.1967 347.992C39.6927 347.256 39.4407 346.184 39.4407 344.776C39.4407 343.36 39.6927 342.284 40.1967 341.548C40.7007 340.812 41.4367 340.444 42.4047 340.444C43.3727 340.444 44.1087 340.812 44.6127 341.548C45.1167 342.276 45.3687 343.348 45.3687 344.764C45.3687 346.18 45.1167 347.256 44.6127 347.992C44.1087 348.728 43.3727 349.096 42.4047 349.096ZM42.4047 348.268C43.0767 348.268 43.5727 347.984 43.8927 347.416C44.2127 346.848 44.3727 345.964 44.3727 344.764C44.3727 343.556 44.2127 342.672 43.8927 342.112C43.5807 341.552 43.0847 341.272 42.4047 341.272C41.7327 341.272 41.2367 341.556 40.9167 342.124C40.5967 342.684 40.4367 343.564 40.4367 344.764C40.4367 345.964 40.5967 346.848 40.9167 347.416C41.2367 347.984 41.7327 348.268 42.4047 348.268Z" fill="#030229"/>
</g>
<g opacity="0.7">
<path opacity="0.7" d="M68.904 371.172C69.048 371.172 69.16 371.208 69.24 371.28C69.32 371.352 69.36 371.452 69.36 371.58C69.36 371.716 69.32 371.82 69.24 371.892C69.168 371.964 69.056 372 68.904 372H64.932C64.78 372 64.664 371.964 64.584 371.892C64.512 371.82 64.476 371.716 64.476 371.58C64.476 371.452 64.516 371.352 64.596 371.28C64.676 371.208 64.788 371.172 64.932 371.172H66.42V364.74L65.112 365.592C65.048 365.632 64.984 365.652 64.92 365.652C64.808 365.652 64.708 365.6 64.62 365.496C64.54 365.392 64.5 365.28 64.5 365.16C64.5 364.992 64.564 364.872 64.692 364.8L66.516 363.612C66.652 363.524 66.792 363.48 66.936 363.48C67.072 363.48 67.184 363.524 67.272 363.612C67.36 363.7 67.404 363.824 67.404 363.984V371.172H68.904ZM73.7953 372.096C72.8273 372.096 72.0913 371.728 71.5873 370.992C71.0833 370.256 70.8313 369.184 70.8313 367.776C70.8313 366.36 71.0833 365.284 71.5873 364.548C72.0913 363.812 72.8273 363.444 73.7953 363.444C74.7633 363.444 75.4993 363.812 76.0033 364.548C76.5073 365.276 76.7593 366.348 76.7593 367.764C76.7593 369.18 76.5073 370.256 76.0033 370.992C75.4993 371.728 74.7633 372.096 73.7953 372.096ZM73.7953 371.268C74.4673 371.268 74.9633 370.984 75.2833 370.416C75.6033 369.848 75.7633 368.964 75.7633 367.764C75.7633 366.556 75.6033 365.672 75.2833 365.112C74.9713 364.552 74.4753 364.272 73.7953 364.272C73.1233 364.272 72.6273 364.556 72.3073 365.124C71.9873 365.684 71.8273 366.564 71.8273 367.764C71.8273 368.964 71.9873 369.848 72.3073 370.416C72.6273 370.984 73.1233 371.268 73.7953 371.268ZM80.6786 366.012C82.1426 366.012 82.8746 366.78 82.8746 368.316V371.58C82.8746 371.724 82.8306 371.84 82.7426 371.928C82.6626 372.016 82.5506 372.06 82.4066 372.06C82.2626 372.06 82.1466 372.016 82.0586 371.928C81.9706 371.84 81.9266 371.724 81.9266 371.58V371.004C81.7746 371.348 81.5426 371.616 81.2306 371.808C80.9186 371.992 80.5586 372.084 80.1506 372.084C79.7746 372.084 79.4266 372.008 79.1066 371.856C78.7946 371.704 78.5466 371.492 78.3626 371.22C78.1786 370.948 78.0866 370.648 78.0866 370.32C78.0866 369.88 78.1986 369.54 78.4226 369.3C78.6466 369.052 79.0146 368.876 79.5266 368.772C80.0386 368.66 80.7506 368.604 81.6626 368.604H81.9266V368.208C81.9266 367.728 81.8266 367.376 81.6266 367.152C81.4346 366.928 81.1186 366.816 80.6786 366.816C80.1346 366.816 79.5826 366.964 79.0226 367.26C78.8066 367.396 78.6546 367.464 78.5666 367.464C78.4706 367.464 78.3906 367.428 78.3266 367.356C78.2626 367.284 78.2306 367.192 78.2306 367.08C78.2306 366.968 78.2626 366.872 78.3266 366.792C78.3986 366.704 78.5106 366.616 78.6626 366.528C78.9426 366.368 79.2586 366.244 79.6106 366.156C79.9706 366.06 80.3266 366.012 80.6786 366.012ZM80.2826 371.316C80.7626 371.316 81.1546 371.156 81.4586 370.836C81.7706 370.508 81.9266 370.088 81.9266 369.576V369.228H81.7106C81.0066 369.228 80.4706 369.26 80.1026 369.324C79.7346 369.38 79.4706 369.48 79.3106 369.624C79.1586 369.76 79.0826 369.964 79.0826 370.236C79.0826 370.548 79.1946 370.808 79.4186 371.016C79.6506 371.216 79.9386 371.316 80.2826 371.316ZM91.1579 366.012C92.4539 366.012 93.1019 366.784 93.1019 368.328V371.58C93.1019 371.732 93.0579 371.852 92.9699 371.94C92.8819 372.02 92.7659 372.06 92.6219 372.06C92.4779 372.06 92.3579 372.02 92.2619 371.94C92.1739 371.852 92.1299 371.732 92.1299 371.58V368.352C92.1299 367.816 92.0339 367.428 91.8419 367.188C91.6499 366.948 91.3499 366.828 90.9419 366.828C90.4539 366.828 90.0699 366.992 89.7899 367.32C89.5099 367.648 89.3699 368.092 89.3699 368.652V371.58C89.3699 371.732 89.3219 371.852 89.2259 371.94C89.1379 372.02 89.0219 372.06 88.8779 372.06C88.7339 372.06 88.6179 372.02 88.5299 371.94C88.4419 371.852 88.3979 371.732 88.3979 371.58V368.352C88.3979 367.816 88.3019 367.428 88.1099 367.188C87.9179 366.948 87.6139 366.828 87.1979 366.828C86.7179 366.828 86.3339 366.992 86.0459 367.32C85.7659 367.648 85.6259 368.092 85.6259 368.652V371.58C85.6259 371.732 85.5819 371.852 85.4939 371.94C85.4059 372.02 85.2899 372.06 85.1459 372.06C85.0019 372.06 84.8819 372.02 84.7859 371.94C84.6979 371.852 84.6539 371.732 84.6539 371.58V366.516C84.6539 366.372 84.6979 366.256 84.7859 366.168C84.8819 366.08 85.0019 366.036 85.1459 366.036C85.2819 366.036 85.3939 366.08 85.4819 366.168C85.5699 366.248 85.6139 366.36 85.6139 366.504V367.08C85.7899 366.736 86.0339 366.472 86.3459 366.288C86.6579 366.104 87.0179 366.012 87.4259 366.012C88.3379 366.012 88.9339 366.396 89.2139 367.164C89.3819 366.812 89.6379 366.532 89.9819 366.324C90.3259 366.116 90.7179 366.012 91.1579 366.012Z" fill="#030229"/>
<path opacity="0.7" d="M133.904 371.172C134.048 371.172 134.16 371.208 134.24 371.28C134.32 371.352 134.36 371.452 134.36 371.58C134.36 371.716 134.32 371.82 134.24 371.892C134.168 371.964 134.056 372 133.904 372H129.932C129.78 372 129.664 371.964 129.584 371.892C129.512 371.82 129.476 371.716 129.476 371.58C129.476 371.452 129.516 371.352 129.596 371.28C129.676 371.208 129.788 371.172 129.932 371.172H131.42V364.74L130.112 365.592C130.048 365.632 129.984 365.652 129.92 365.652C129.808 365.652 129.708 365.6 129.62 365.496C129.54 365.392 129.5 365.28 129.5 365.16C129.5 364.992 129.564 364.872 129.692 364.8L131.516 363.612C131.652 363.524 131.792 363.48 131.936 363.48C132.072 363.48 132.184 363.524 132.272 363.612C132.36 363.7 132.404 363.824 132.404 363.984V371.172H133.904ZM141.099 371.172C141.243 371.172 141.355 371.208 141.435 371.28C141.515 371.352 141.555 371.452 141.555 371.58C141.555 371.716 141.515 371.82 141.435 371.892C141.363 371.964 141.251 372 141.099 372H137.127C136.975 372 136.859 371.964 136.779 371.892C136.707 371.82 136.671 371.716 136.671 371.58C136.671 371.452 136.711 371.352 136.791 371.28C136.871 371.208 136.983 371.172 137.127 371.172H138.615V364.74L137.307 365.592C137.243 365.632 137.179 365.652 137.115 365.652C137.003 365.652 136.903 365.6 136.815 365.496C136.735 365.392 136.695 365.28 136.695 365.16C136.695 364.992 136.759 364.872 136.887 364.8L138.711 363.612C138.847 363.524 138.987 363.48 139.131 363.48C139.267 363.48 139.379 363.524 139.467 363.612C139.555 363.7 139.599 363.824 139.599 363.984V371.172H141.099ZM145.679 366.012C147.143 366.012 147.875 366.78 147.875 368.316V371.58C147.875 371.724 147.831 371.84 147.743 371.928C147.663 372.016 147.551 372.06 147.407 372.06C147.263 372.06 147.147 372.016 147.059 371.928C146.971 371.84 146.927 371.724 146.927 371.58V371.004C146.775 371.348 146.543 371.616 146.231 371.808C145.919 371.992 145.559 372.084 145.151 372.084C144.775 372.084 144.427 372.008 144.107 371.856C143.795 371.704 143.547 371.492 143.363 371.22C143.179 370.948 143.087 370.648 143.087 370.32C143.087 369.88 143.199 369.54 143.423 369.3C143.647 369.052 144.015 368.876 144.527 368.772C145.039 368.66 145.751 368.604 146.663 368.604H146.927V368.208C146.927 367.728 146.827 367.376 146.627 367.152C146.435 366.928 146.119 366.816 145.679 366.816C145.135 366.816 144.583 366.964 144.023 367.26C143.807 367.396 143.655 367.464 143.567 367.464C143.471 367.464 143.391 367.428 143.327 367.356C143.263 367.284 143.231 367.192 143.231 367.08C143.231 366.968 143.263 366.872 143.327 366.792C143.399 366.704 143.511 366.616 143.663 366.528C143.943 366.368 144.259 366.244 144.611 366.156C144.971 366.06 145.327 366.012 145.679 366.012ZM145.283 371.316C145.763 371.316 146.155 371.156 146.459 370.836C146.771 370.508 146.927 370.088 146.927 369.576V369.228H146.711C146.007 369.228 145.471 369.26 145.103 369.324C144.735 369.38 144.471 369.48 144.311 369.624C144.159 369.76 144.083 369.964 144.083 370.236C144.083 370.548 144.195 370.808 144.419 371.016C144.651 371.216 144.939 371.316 145.283 371.316ZM156.158 366.012C157.454 366.012 158.102 366.784 158.102 368.328V371.58C158.102 371.732 158.058 371.852 157.97 371.94C157.882 372.02 157.766 372.06 157.622 372.06C157.478 372.06 157.358 372.02 157.262 371.94C157.174 371.852 157.13 371.732 157.13 371.58V368.352C157.13 367.816 157.034 367.428 156.842 367.188C156.65 366.948 156.35 366.828 155.942 366.828C155.454 366.828 155.07 366.992 154.79 367.32C154.51 367.648 154.37 368.092 154.37 368.652V371.58C154.37 371.732 154.322 371.852 154.226 371.94C154.138 372.02 154.022 372.06 153.878 372.06C153.734 372.06 153.618 372.02 153.53 371.94C153.442 371.852 153.398 371.732 153.398 371.58V368.352C153.398 367.816 153.302 367.428 153.11 367.188C152.918 366.948 152.614 366.828 152.198 366.828C151.718 366.828 151.334 366.992 151.046 367.32C150.766 367.648 150.626 368.092 150.626 368.652V371.58C150.626 371.732 150.582 371.852 150.494 371.94C150.406 372.02 150.29 372.06 150.146 372.06C150.002 372.06 149.882 372.02 149.786 371.94C149.698 371.852 149.654 371.732 149.654 371.58V366.516C149.654 366.372 149.698 366.256 149.786 366.168C149.882 366.08 150.002 366.036 150.146 366.036C150.282 366.036 150.394 366.08 150.482 366.168C150.57 366.248 150.614 366.36 150.614 366.504V367.08C150.79 366.736 151.034 366.472 151.346 366.288C151.658 366.104 152.018 366.012 152.426 366.012C153.338 366.012 153.934 366.396 154.214 367.164C154.382 366.812 154.638 366.532 154.982 366.324C155.326 366.116 155.718 366.012 156.158 366.012Z" fill="#030229"/>
<path opacity="0.7" d="M194.904 371.172C195.048 371.172 195.16 371.208 195.24 371.28C195.32 371.352 195.36 371.452 195.36 371.58C195.36 371.716 195.32 371.82 195.24 371.892C195.168 371.964 195.056 372 194.904 372H190.932C190.78 372 190.664 371.964 190.584 371.892C190.512 371.82 190.476 371.716 190.476 371.58C190.476 371.452 190.516 371.352 190.596 371.28C190.676 371.208 190.788 371.172 190.932 371.172H192.42V364.74L191.112 365.592C191.048 365.632 190.984 365.652 190.92 365.652C190.808 365.652 190.708 365.6 190.62 365.496C190.54 365.392 190.5 365.28 190.5 365.16C190.5 364.992 190.564 364.872 190.692 364.8L192.516 363.612C192.652 363.524 192.792 363.48 192.936 363.48C193.072 363.48 193.184 363.524 193.272 363.612C193.36 363.7 193.404 363.824 193.404 363.984V371.172H194.904ZM202.291 371.172C202.435 371.172 202.547 371.208 202.627 371.28C202.707 371.352 202.747 371.452 202.747 371.58C202.747 371.86 202.595 372 202.291 372H197.587C197.451 372 197.339 371.96 197.251 371.88C197.163 371.792 197.119 371.688 197.119 371.568C197.119 371.416 197.175 371.284 197.287 371.172L200.179 367.992C200.579 367.544 200.867 367.144 201.043 366.792C201.227 366.432 201.319 366.072 201.319 365.712C201.319 365.248 201.183 364.892 200.911 364.644C200.647 364.396 200.271 364.272 199.783 364.272C199.399 364.272 199.031 364.344 198.679 364.488C198.327 364.624 197.975 364.836 197.623 365.124C197.503 365.22 197.391 365.268 197.287 365.268C197.199 365.268 197.123 365.228 197.059 365.148C196.995 365.06 196.963 364.956 196.963 364.836C196.963 364.668 197.027 364.532 197.155 364.428C197.483 364.124 197.883 363.884 198.355 363.708C198.827 363.532 199.311 363.444 199.807 363.444C200.567 363.444 201.171 363.644 201.619 364.044C202.075 364.444 202.303 364.984 202.303 365.664C202.303 366.152 202.191 366.62 201.967 367.068C201.751 367.516 201.391 368.016 200.887 368.568L198.487 371.172H202.291ZM206.679 366.012C208.143 366.012 208.875 366.78 208.875 368.316V371.58C208.875 371.724 208.831 371.84 208.743 371.928C208.663 372.016 208.551 372.06 208.407 372.06C208.263 372.06 208.147 372.016 208.059 371.928C207.971 371.84 207.927 371.724 207.927 371.58V371.004C207.775 371.348 207.543 371.616 207.231 371.808C206.919 371.992 206.559 372.084 206.151 372.084C205.775 372.084 205.427 372.008 205.107 371.856C204.795 371.704 204.547 371.492 204.363 371.22C204.179 370.948 204.087 370.648 204.087 370.32C204.087 369.88 204.199 369.54 204.423 369.3C204.647 369.052 205.015 368.876 205.527 368.772C206.039 368.66 206.751 368.604 207.663 368.604H207.927V368.208C207.927 367.728 207.827 367.376 207.627 367.152C207.435 366.928 207.119 366.816 206.679 366.816C206.135 366.816 205.583 366.964 205.023 367.26C204.807 367.396 204.655 367.464 204.567 367.464C204.471 367.464 204.391 367.428 204.327 367.356C204.263 367.284 204.231 367.192 204.231 367.08C204.231 366.968 204.263 366.872 204.327 366.792C204.399 366.704 204.511 366.616 204.663 366.528C204.943 366.368 205.259 366.244 205.611 366.156C205.971 366.06 206.327 366.012 206.679 366.012ZM206.283 371.316C206.763 371.316 207.155 371.156 207.459 370.836C207.771 370.508 207.927 370.088 207.927 369.576V369.228H207.711C207.007 369.228 206.471 369.26 206.103 369.324C205.735 369.38 205.471 369.48 205.311 369.624C205.159 369.76 205.083 369.964 205.083 370.236C205.083 370.548 205.195 370.808 205.419 371.016C205.651 371.216 205.939 371.316 206.283 371.316ZM217.158 366.012C218.454 366.012 219.102 366.784 219.102 368.328V371.58C219.102 371.732 219.058 371.852 218.97 371.94C218.882 372.02 218.766 372.06 218.622 372.06C218.478 372.06 218.358 372.02 218.262 371.94C218.174 371.852 218.13 371.732 218.13 371.58V368.352C218.13 367.816 218.034 367.428 217.842 367.188C217.65 366.948 217.35 366.828 216.942 366.828C216.454 366.828 216.07 366.992 215.79 367.32C215.51 367.648 215.37 368.092 215.37 368.652V371.58C215.37 371.732 215.322 371.852 215.226 371.94C215.138 372.02 215.022 372.06 214.878 372.06C214.734 372.06 214.618 372.02 214.53 371.94C214.442 371.852 214.398 371.732 214.398 371.58V368.352C214.398 367.816 214.302 367.428 214.11 367.188C213.918 366.948 213.614 366.828 213.198 366.828C212.718 366.828 212.334 366.992 212.046 367.32C211.766 367.648 211.626 368.092 211.626 368.652V371.58C211.626 371.732 211.582 371.852 211.494 371.94C211.406 372.02 211.29 372.06 211.146 372.06C211.002 372.06 210.882 372.02 210.786 371.94C210.698 371.852 210.654 371.732 210.654 371.58V366.516C210.654 366.372 210.698 366.256 210.786 366.168C210.882 366.08 211.002 366.036 211.146 366.036C211.282 366.036 211.394 366.08 211.482 366.168C211.57 366.248 211.614 366.36 211.614 366.504V367.08C211.79 366.736 212.034 366.472 212.346 366.288C212.658 366.104 213.018 366.012 213.426 366.012C214.338 366.012 214.934 366.396 215.214 367.164C215.382 366.812 215.638 366.532 215.982 366.324C216.326 366.116 216.718 366.012 217.158 366.012Z" fill="#030229"/>
<path opacity="0.7" d="M255.6 372.096C254.632 372.096 253.896 371.728 253.392 370.992C252.888 370.256 252.636 369.184 252.636 367.776C252.636 366.36 252.888 365.284 253.392 364.548C253.896 363.812 254.632 363.444 255.6 363.444C256.568 363.444 257.304 363.812 257.808 364.548C258.312 365.276 258.564 366.348 258.564 367.764C258.564 369.18 258.312 370.256 257.808 370.992C257.304 371.728 256.568 372.096 255.6 372.096ZM255.6 371.268C256.272 371.268 256.768 370.984 257.088 370.416C257.408 369.848 257.568 368.964 257.568 367.764C257.568 366.556 257.408 365.672 257.088 365.112C256.776 364.552 256.28 364.272 255.6 364.272C254.928 364.272 254.432 364.556 254.112 365.124C253.792 365.684 253.632 366.564 253.632 367.764C253.632 368.964 253.792 369.848 254.112 370.416C254.432 370.984 254.928 371.268 255.6 371.268ZM265.099 371.172C265.243 371.172 265.355 371.208 265.435 371.28C265.515 371.352 265.555 371.452 265.555 371.58C265.555 371.716 265.515 371.82 265.435 371.892C265.363 371.964 265.251 372 265.099 372H261.127C260.975 372 260.859 371.964 260.779 371.892C260.707 371.82 260.671 371.716 260.671 371.58C260.671 371.452 260.711 371.352 260.791 371.28C260.871 371.208 260.983 371.172 261.127 371.172H262.615V364.74L261.307 365.592C261.243 365.632 261.179 365.652 261.115 365.652C261.003 365.652 260.903 365.6 260.815 365.496C260.735 365.392 260.695 365.28 260.695 365.16C260.695 364.992 260.759 364.872 260.887 364.8L262.711 363.612C262.847 363.524 262.987 363.48 263.131 363.48C263.267 363.48 263.379 363.524 263.467 363.612C263.555 363.7 263.599 363.824 263.599 363.984V371.172H265.099ZM269.679 366.012C271.143 366.012 271.875 366.78 271.875 368.316V371.58C271.875 371.724 271.831 371.84 271.743 371.928C271.663 372.016 271.551 372.06 271.407 372.06C271.263 372.06 271.147 372.016 271.059 371.928C270.971 371.84 270.927 371.724 270.927 371.58V371.004C270.775 371.348 270.543 371.616 270.231 371.808C269.919 371.992 269.559 372.084 269.151 372.084C268.775 372.084 268.427 372.008 268.107 371.856C267.795 371.704 267.547 371.492 267.363 371.22C267.179 370.948 267.087 370.648 267.087 370.32C267.087 369.88 267.199 369.54 267.423 369.3C267.647 369.052 268.015 368.876 268.527 368.772C269.039 368.66 269.751 368.604 270.663 368.604H270.927V368.208C270.927 367.728 270.827 367.376 270.627 367.152C270.435 366.928 270.119 366.816 269.679 366.816C269.135 366.816 268.583 366.964 268.023 367.26C267.807 367.396 267.655 367.464 267.567 367.464C267.471 367.464 267.391 367.428 267.327 367.356C267.263 367.284 267.231 367.192 267.231 367.08C267.231 366.968 267.263 366.872 267.327 366.792C267.399 366.704 267.511 366.616 267.663 366.528C267.943 366.368 268.259 366.244 268.611 366.156C268.971 366.06 269.327 366.012 269.679 366.012ZM269.283 371.316C269.763 371.316 270.155 371.156 270.459 370.836C270.771 370.508 270.927 370.088 270.927 369.576V369.228H270.711C270.007 369.228 269.471 369.26 269.103 369.324C268.735 369.38 268.471 369.48 268.311 369.624C268.159 369.76 268.083 369.964 268.083 370.236C268.083 370.548 268.195 370.808 268.419 371.016C268.651 371.216 268.939 371.316 269.283 371.316ZM280.158 366.012C281.454 366.012 282.102 366.784 282.102 368.328V371.58C282.102 371.732 282.058 371.852 281.97 371.94C281.882 372.02 281.766 372.06 281.622 372.06C281.478 372.06 281.358 372.02 281.262 371.94C281.174 371.852 281.13 371.732 281.13 371.58V368.352C281.13 367.816 281.034 367.428 280.842 367.188C280.65 366.948 280.35 366.828 279.942 366.828C279.454 366.828 279.07 366.992 278.79 367.32C278.51 367.648 278.37 368.092 278.37 368.652V371.58C278.37 371.732 278.322 371.852 278.226 371.94C278.138 372.02 278.022 372.06 277.878 372.06C277.734 372.06 277.618 372.02 277.53 371.94C277.442 371.852 277.398 371.732 277.398 371.58V368.352C277.398 367.816 277.302 367.428 277.11 367.188C276.918 366.948 276.614 366.828 276.198 366.828C275.718 366.828 275.334 366.992 275.046 367.32C274.766 367.648 274.626 368.092 274.626 368.652V371.58C274.626 371.732 274.582 371.852 274.494 371.94C274.406 372.02 274.29 372.06 274.146 372.06C274.002 372.06 273.882 372.02 273.786 371.94C273.698 371.852 273.654 371.732 273.654 371.58V366.516C273.654 366.372 273.698 366.256 273.786 366.168C273.882 366.08 274.002 366.036 274.146 366.036C274.282 366.036 274.394 366.08 274.482 366.168C274.57 366.248 274.614 366.36 274.614 366.504V367.08C274.79 366.736 275.034 366.472 275.346 366.288C275.658 366.104 276.018 366.012 276.426 366.012C277.338 366.012 277.934 366.396 278.214 367.164C278.382 366.812 278.638 366.532 278.982 366.324C279.326 366.116 279.718 366.012 280.158 366.012Z" fill="#030229"/>
<path opacity="0.7" d="M320.6 372.096C319.632 372.096 318.896 371.728 318.392 370.992C317.888 370.256 317.636 369.184 317.636 367.776C317.636 366.36 317.888 365.284 318.392 364.548C318.896 363.812 319.632 363.444 320.6 363.444C321.568 363.444 322.304 363.812 322.808 364.548C323.312 365.276 323.564 366.348 323.564 367.764C323.564 369.18 323.312 370.256 322.808 370.992C322.304 371.728 321.568 372.096 320.6 372.096ZM320.6 371.268C321.272 371.268 321.768 370.984 322.088 370.416C322.408 369.848 322.568 368.964 322.568 367.764C322.568 366.556 322.408 365.672 322.088 365.112C321.776 364.552 321.28 364.272 320.6 364.272C319.928 364.272 319.432 364.556 319.112 365.124C318.792 365.684 318.632 366.564 318.632 367.764C318.632 368.964 318.792 369.848 319.112 370.416C319.432 370.984 319.928 371.268 320.6 371.268ZM330.291 371.172C330.435 371.172 330.547 371.208 330.627 371.28C330.707 371.352 330.747 371.452 330.747 371.58C330.747 371.86 330.595 372 330.291 372H325.587C325.451 372 325.339 371.96 325.251 371.88C325.163 371.792 325.119 371.688 325.119 371.568C325.119 371.416 325.175 371.284 325.287 371.172L328.179 367.992C328.579 367.544 328.867 367.144 329.043 366.792C329.227 366.432 329.319 366.072 329.319 365.712C329.319 365.248 329.183 364.892 328.911 364.644C328.647 364.396 328.271 364.272 327.783 364.272C327.399 364.272 327.031 364.344 326.679 364.488C326.327 364.624 325.975 364.836 325.623 365.124C325.503 365.22 325.391 365.268 325.287 365.268C325.199 365.268 325.123 365.228 325.059 365.148C324.995 365.06 324.963 364.956 324.963 364.836C324.963 364.668 325.027 364.532 325.155 364.428C325.483 364.124 325.883 363.884 326.355 363.708C326.827 363.532 327.311 363.444 327.807 363.444C328.567 363.444 329.171 363.644 329.619 364.044C330.075 364.444 330.303 364.984 330.303 365.664C330.303 366.152 330.191 366.62 329.967 367.068C329.751 367.516 329.391 368.016 328.887 368.568L326.487 371.172H330.291ZM334.679 366.012C336.143 366.012 336.875 366.78 336.875 368.316V371.58C336.875 371.724 336.831 371.84 336.743 371.928C336.663 372.016 336.551 372.06 336.407 372.06C336.263 372.06 336.147 372.016 336.059 371.928C335.971 371.84 335.927 371.724 335.927 371.58V371.004C335.775 371.348 335.543 371.616 335.231 371.808C334.919 371.992 334.559 372.084 334.151 372.084C333.775 372.084 333.427 372.008 333.107 371.856C332.795 371.704 332.547 371.492 332.363 371.22C332.179 370.948 332.087 370.648 332.087 370.32C332.087 369.88 332.199 369.54 332.423 369.3C332.647 369.052 333.015 368.876 333.527 368.772C334.039 368.66 334.751 368.604 335.663 368.604H335.927V368.208C335.927 367.728 335.827 367.376 335.627 367.152C335.435 366.928 335.119 366.816 334.679 366.816C334.135 366.816 333.583 366.964 333.023 367.26C332.807 367.396 332.655 367.464 332.567 367.464C332.471 367.464 332.391 367.428 332.327 367.356C332.263 367.284 332.231 367.192 332.231 367.08C332.231 366.968 332.263 366.872 332.327 366.792C332.399 366.704 332.511 366.616 332.663 366.528C332.943 366.368 333.259 366.244 333.611 366.156C333.971 366.06 334.327 366.012 334.679 366.012ZM334.283 371.316C334.763 371.316 335.155 371.156 335.459 370.836C335.771 370.508 335.927 370.088 335.927 369.576V369.228H335.711C335.007 369.228 334.471 369.26 334.103 369.324C333.735 369.38 333.471 369.48 333.311 369.624C333.159 369.76 333.083 369.964 333.083 370.236C333.083 370.548 333.195 370.808 333.419 371.016C333.651 371.216 333.939 371.316 334.283 371.316ZM345.158 366.012C346.454 366.012 347.102 366.784 347.102 368.328V371.58C347.102 371.732 347.058 371.852 346.97 371.94C346.882 372.02 346.766 372.06 346.622 372.06C346.478 372.06 346.358 372.02 346.262 371.94C346.174 371.852 346.13 371.732 346.13 371.58V368.352C346.13 367.816 346.034 367.428 345.842 367.188C345.65 366.948 345.35 366.828 344.942 366.828C344.454 366.828 344.07 366.992 343.79 367.32C343.51 367.648 343.37 368.092 343.37 368.652V371.58C343.37 371.732 343.322 371.852 343.226 371.94C343.138 372.02 343.022 372.06 342.878 372.06C342.734 372.06 342.618 372.02 342.53 371.94C342.442 371.852 342.398 371.732 342.398 371.58V368.352C342.398 367.816 342.302 367.428 342.11 367.188C341.918 366.948 341.614 366.828 341.198 366.828C340.718 366.828 340.334 366.992 340.046 367.32C339.766 367.648 339.626 368.092 339.626 368.652V371.58C339.626 371.732 339.582 371.852 339.494 371.94C339.406 372.02 339.29 372.06 339.146 372.06C339.002 372.06 338.882 372.02 338.786 371.94C338.698 371.852 338.654 371.732 338.654 371.58V366.516C338.654 366.372 338.698 366.256 338.786 366.168C338.882 366.08 339.002 366.036 339.146 366.036C339.282 366.036 339.394 366.08 339.482 366.168C339.57 366.248 339.614 366.36 339.614 366.504V367.08C339.79 366.736 340.034 366.472 340.346 366.288C340.658 366.104 341.018 366.012 341.426 366.012C342.338 366.012 342.934 366.396 343.214 367.164C343.382 366.812 343.638 366.532 343.982 366.324C344.326 366.116 344.718 366.012 345.158 366.012Z" fill="#030229"/>
<path opacity="0.7" d="M386.6 372.096C385.632 372.096 384.896 371.728 384.392 370.992C383.888 370.256 383.636 369.184 383.636 367.776C383.636 366.36 383.888 365.284 384.392 364.548C384.896 363.812 385.632 363.444 386.6 363.444C387.568 363.444 388.304 363.812 388.808 364.548C389.312 365.276 389.564 366.348 389.564 367.764C389.564 369.18 389.312 370.256 388.808 370.992C388.304 371.728 387.568 372.096 386.6 372.096ZM386.6 371.268C387.272 371.268 387.768 370.984 388.088 370.416C388.408 369.848 388.568 368.964 388.568 367.764C388.568 366.556 388.408 365.672 388.088 365.112C387.776 364.552 387.28 364.272 386.6 364.272C385.928 364.272 385.432 364.556 385.112 365.124C384.792 365.684 384.632 366.564 384.632 367.764C384.632 368.964 384.792 369.848 385.112 370.416C385.432 370.984 385.928 371.268 386.6 371.268ZM394.923 367.656C395.435 367.8 395.823 368.048 396.087 368.4C396.359 368.752 396.495 369.188 396.495 369.708C396.495 370.444 396.247 371.024 395.751 371.448C395.255 371.872 394.579 372.084 393.723 372.084C393.203 372.084 392.703 371.996 392.223 371.82C391.751 371.644 391.351 371.404 391.023 371.1C390.895 370.98 390.831 370.844 390.831 370.692C390.831 370.572 390.863 370.472 390.927 370.392C390.991 370.312 391.067 370.272 391.155 370.272C391.267 370.272 391.379 370.316 391.491 370.404C391.859 370.7 392.219 370.916 392.571 371.052C392.923 371.188 393.303 371.256 393.711 371.256C394.303 371.256 394.751 371.12 395.055 370.848C395.367 370.576 395.523 370.184 395.523 369.672C395.523 368.64 394.875 368.124 393.579 368.124H392.943C392.815 368.124 392.711 368.084 392.631 368.004C392.559 367.916 392.523 367.816 392.523 367.704C392.523 367.592 392.559 367.496 392.631 367.416C392.711 367.336 392.815 367.296 392.943 367.296H393.387C394.011 367.296 394.491 367.16 394.827 366.888C395.163 366.608 395.331 366.208 395.331 365.688C395.331 365.232 395.195 364.884 394.923 364.644C394.651 364.396 394.267 364.272 393.771 364.272C393.395 364.272 393.031 364.344 392.679 364.488C392.327 364.624 391.975 364.836 391.623 365.124C391.511 365.212 391.399 365.256 391.287 365.256C391.199 365.256 391.123 365.216 391.059 365.136C390.995 365.056 390.963 364.956 390.963 364.836C390.963 364.684 391.027 364.548 391.155 364.428C391.483 364.124 391.879 363.884 392.343 363.708C392.815 363.532 393.299 363.444 393.795 363.444C394.563 363.444 395.175 363.64 395.631 364.032C396.087 364.424 396.311 364.952 396.303 365.616C396.295 366.096 396.167 366.516 395.919 366.876C395.679 367.236 395.347 367.496 394.923 367.656ZM400.679 366.012C402.143 366.012 402.875 366.78 402.875 368.316V371.58C402.875 371.724 402.831 371.84 402.743 371.928C402.663 372.016 402.551 372.06 402.407 372.06C402.263 372.06 402.147 372.016 402.059 371.928C401.971 371.84 401.927 371.724 401.927 371.58V371.004C401.775 371.348 401.543 371.616 401.231 371.808C400.919 371.992 400.559 372.084 400.151 372.084C399.775 372.084 399.427 372.008 399.107 371.856C398.795 371.704 398.547 371.492 398.363 371.22C398.179 370.948 398.087 370.648 398.087 370.32C398.087 369.88 398.199 369.54 398.423 369.3C398.647 369.052 399.015 368.876 399.527 368.772C400.039 368.66 400.751 368.604 401.663 368.604H401.927V368.208C401.927 367.728 401.827 367.376 401.627 367.152C401.435 366.928 401.119 366.816 400.679 366.816C400.135 366.816 399.583 366.964 399.023 367.26C398.807 367.396 398.655 367.464 398.567 367.464C398.471 367.464 398.391 367.428 398.327 367.356C398.263 367.284 398.231 367.192 398.231 367.08C398.231 366.968 398.263 366.872 398.327 366.792C398.399 366.704 398.511 366.616 398.663 366.528C398.943 366.368 399.259 366.244 399.611 366.156C399.971 366.06 400.327 366.012 400.679 366.012ZM400.283 371.316C400.763 371.316 401.155 371.156 401.459 370.836C401.771 370.508 401.927 370.088 401.927 369.576V369.228H401.711C401.007 369.228 400.471 369.26 400.103 369.324C399.735 369.38 399.471 369.48 399.311 369.624C399.159 369.76 399.083 369.964 399.083 370.236C399.083 370.548 399.195 370.808 399.419 371.016C399.651 371.216 399.939 371.316 400.283 371.316ZM411.158 366.012C412.454 366.012 413.102 366.784 413.102 368.328V371.58C413.102 371.732 413.058 371.852 412.97 371.94C412.882 372.02 412.766 372.06 412.622 372.06C412.478 372.06 412.358 372.02 412.262 371.94C412.174 371.852 412.13 371.732 412.13 371.58V368.352C412.13 367.816 412.034 367.428 411.842 367.188C411.65 366.948 411.35 366.828 410.942 366.828C410.454 366.828 410.07 366.992 409.79 367.32C409.51 367.648 409.37 368.092 409.37 368.652V371.58C409.37 371.732 409.322 371.852 409.226 371.94C409.138 372.02 409.022 372.06 408.878 372.06C408.734 372.06 408.618 372.02 408.53 371.94C408.442 371.852 408.398 371.732 408.398 371.58V368.352C408.398 367.816 408.302 367.428 408.11 367.188C407.918 366.948 407.614 366.828 407.198 366.828C406.718 366.828 406.334 366.992 406.046 367.32C405.766 367.648 405.626 368.092 405.626 368.652V371.58C405.626 371.732 405.582 371.852 405.494 371.94C405.406 372.02 405.29 372.06 405.146 372.06C405.002 372.06 404.882 372.02 404.786 371.94C404.698 371.852 404.654 371.732 404.654 371.58V366.516C404.654 366.372 404.698 366.256 404.786 366.168C404.882 366.08 405.002 366.036 405.146 366.036C405.282 366.036 405.394 366.08 405.482 366.168C405.57 366.248 405.614 366.36 405.614 366.504V367.08C405.79 366.736 406.034 366.472 406.346 366.288C406.658 366.104 407.018 366.012 407.426 366.012C408.338 366.012 408.934 366.396 409.214 367.164C409.382 366.812 409.638 366.532 409.982 366.324C410.326 366.116 410.718 366.012 411.158 366.012Z" fill="#030229"/>
<path opacity="0.7" d="M453.6 372.096C452.632 372.096 451.896 371.728 451.392 370.992C450.888 370.256 450.636 369.184 450.636 367.776C450.636 366.36 450.888 365.284 451.392 364.548C451.896 363.812 452.632 363.444 453.6 363.444C454.568 363.444 455.304 363.812 455.808 364.548C456.312 365.276 456.564 366.348 456.564 367.764C456.564 369.18 456.312 370.256 455.808 370.992C455.304 371.728 454.568 372.096 453.6 372.096ZM453.6 371.268C454.272 371.268 454.768 370.984 455.088 370.416C455.408 369.848 455.568 368.964 455.568 367.764C455.568 366.556 455.408 365.672 455.088 365.112C454.776 364.552 454.28 364.272 453.6 364.272C452.928 364.272 452.432 364.556 452.112 365.124C451.792 365.684 451.632 366.564 451.632 367.764C451.632 368.964 451.792 369.848 452.112 370.416C452.432 370.984 452.928 371.268 453.6 371.268ZM463.591 369.348C463.735 369.348 463.847 369.388 463.927 369.468C464.007 369.54 464.047 369.636 464.047 369.756C464.047 370.028 463.895 370.164 463.591 370.164H462.691V371.556C462.691 371.716 462.643 371.84 462.547 371.928C462.459 372.016 462.343 372.06 462.199 372.06C462.055 372.06 461.939 372.016 461.851 371.928C461.763 371.84 461.719 371.716 461.719 371.556V370.164H458.167C458.023 370.164 457.911 370.124 457.831 370.044C457.751 369.964 457.711 369.864 457.711 369.744C457.711 369.632 457.755 369.508 457.843 369.372L461.767 363.696C461.879 363.552 462.023 363.48 462.199 363.48C462.335 363.48 462.451 363.524 462.547 363.612C462.643 363.7 462.691 363.824 462.691 363.984V369.348H463.591ZM458.827 369.348H461.719V365.184L458.827 369.348ZM467.679 366.012C469.143 366.012 469.875 366.78 469.875 368.316V371.58C469.875 371.724 469.831 371.84 469.743 371.928C469.663 372.016 469.551 372.06 469.407 372.06C469.263 372.06 469.147 372.016 469.059 371.928C468.971 371.84 468.927 371.724 468.927 371.58V371.004C468.775 371.348 468.543 371.616 468.231 371.808C467.919 371.992 467.559 372.084 467.151 372.084C466.775 372.084 466.427 372.008 466.107 371.856C465.795 371.704 465.547 371.492 465.363 371.22C465.179 370.948 465.087 370.648 465.087 370.32C465.087 369.88 465.199 369.54 465.423 369.3C465.647 369.052 466.015 368.876 466.527 368.772C467.039 368.66 467.751 368.604 468.663 368.604H468.927V368.208C468.927 367.728 468.827 367.376 468.627 367.152C468.435 366.928 468.119 366.816 467.679 366.816C467.135 366.816 466.583 366.964 466.023 367.26C465.807 367.396 465.655 367.464 465.567 367.464C465.471 367.464 465.391 367.428 465.327 367.356C465.263 367.284 465.231 367.192 465.231 367.08C465.231 366.968 465.263 366.872 465.327 366.792C465.399 366.704 465.511 366.616 465.663 366.528C465.943 366.368 466.259 366.244 466.611 366.156C466.971 366.06 467.327 366.012 467.679 366.012ZM467.283 371.316C467.763 371.316 468.155 371.156 468.459 370.836C468.771 370.508 468.927 370.088 468.927 369.576V369.228H468.711C468.007 369.228 467.471 369.26 467.103 369.324C466.735 369.38 466.471 369.48 466.311 369.624C466.159 369.76 466.083 369.964 466.083 370.236C466.083 370.548 466.195 370.808 466.419 371.016C466.651 371.216 466.939 371.316 467.283 371.316ZM478.158 366.012C479.454 366.012 480.102 366.784 480.102 368.328V371.58C480.102 371.732 480.058 371.852 479.97 371.94C479.882 372.02 479.766 372.06 479.622 372.06C479.478 372.06 479.358 372.02 479.262 371.94C479.174 371.852 479.13 371.732 479.13 371.58V368.352C479.13 367.816 479.034 367.428 478.842 367.188C478.65 366.948 478.35 366.828 477.942 366.828C477.454 366.828 477.07 366.992 476.79 367.32C476.51 367.648 476.37 368.092 476.37 368.652V371.58C476.37 371.732 476.322 371.852 476.226 371.94C476.138 372.02 476.022 372.06 475.878 372.06C475.734 372.06 475.618 372.02 475.53 371.94C475.442 371.852 475.398 371.732 475.398 371.58V368.352C475.398 367.816 475.302 367.428 475.11 367.188C474.918 366.948 474.614 366.828 474.198 366.828C473.718 366.828 473.334 366.992 473.046 367.32C472.766 367.648 472.626 368.092 472.626 368.652V371.58C472.626 371.732 472.582 371.852 472.494 371.94C472.406 372.02 472.29 372.06 472.146 372.06C472.002 372.06 471.882 372.02 471.786 371.94C471.698 371.852 471.654 371.732 471.654 371.58V366.516C471.654 366.372 471.698 366.256 471.786 366.168C471.882 366.08 472.002 366.036 472.146 366.036C472.282 366.036 472.394 366.08 472.482 366.168C472.57 366.248 472.614 366.36 472.614 366.504V367.08C472.79 366.736 473.034 366.472 473.346 366.288C473.658 366.104 474.018 366.012 474.426 366.012C475.338 366.012 475.934 366.396 476.214 367.164C476.382 366.812 476.638 366.532 476.982 366.324C477.326 366.116 477.718 366.012 478.158 366.012Z" fill="#030229"/>
<path opacity="0.7" d="M520.6 372.096C519.632 372.096 518.896 371.728 518.392 370.992C517.888 370.256 517.636 369.184 517.636 367.776C517.636 366.36 517.888 365.284 518.392 364.548C518.896 363.812 519.632 363.444 520.6 363.444C521.568 363.444 522.304 363.812 522.808 364.548C523.312 365.276 523.564 366.348 523.564 367.764C523.564 369.18 523.312 370.256 522.808 370.992C522.304 371.728 521.568 372.096 520.6 372.096ZM520.6 371.268C521.272 371.268 521.768 370.984 522.088 370.416C522.408 369.848 522.568 368.964 522.568 367.764C522.568 366.556 522.408 365.672 522.088 365.112C521.776 364.552 521.28 364.272 520.6 364.272C519.928 364.272 519.432 364.556 519.112 365.124C518.792 365.684 518.632 366.564 518.632 367.764C518.632 368.964 518.792 369.848 519.112 370.416C519.432 370.984 519.928 371.268 520.6 371.268ZM528.119 366.696C528.655 366.696 529.123 366.808 529.523 367.032C529.931 367.256 530.243 367.572 530.459 367.98C530.683 368.38 530.795 368.844 530.795 369.372C530.795 369.9 530.675 370.372 530.435 370.788C530.195 371.196 529.859 371.516 529.427 371.748C529.003 371.972 528.511 372.084 527.951 372.084C527.455 372.084 526.971 371.996 526.499 371.82C526.027 371.644 525.627 371.404 525.299 371.1C525.171 370.98 525.107 370.844 525.107 370.692C525.107 370.572 525.139 370.472 525.203 370.392C525.267 370.312 525.343 370.272 525.431 370.272C525.543 370.272 525.655 370.316 525.767 370.404C526.119 370.692 526.471 370.908 526.823 371.052C527.175 371.188 527.543 371.256 527.927 371.256C528.519 371.256 528.983 371.088 529.319 370.752C529.655 370.416 529.823 369.96 529.823 369.384C529.823 368.824 529.655 368.372 529.319 368.028C528.983 367.684 528.531 367.512 527.963 367.512C527.235 367.512 526.643 367.792 526.187 368.352C526.075 368.472 525.939 368.532 525.779 368.532C525.667 368.532 525.571 368.5 525.491 368.436C525.419 368.364 525.383 368.268 525.383 368.148V364.008C525.383 363.872 525.423 363.76 525.503 363.672C525.591 363.584 525.711 363.54 525.863 363.54H530.087C530.231 363.54 530.343 363.576 530.423 363.648C530.511 363.72 530.555 363.82 530.555 363.948C530.555 364.076 530.511 364.176 530.423 364.248C530.343 364.32 530.231 364.356 530.087 364.356H526.355V367.368C526.579 367.152 526.839 366.988 527.135 366.876C527.439 366.756 527.767 366.696 528.119 366.696ZM534.679 366.012C536.143 366.012 536.875 366.78 536.875 368.316V371.58C536.875 371.724 536.831 371.84 536.743 371.928C536.663 372.016 536.551 372.06 536.407 372.06C536.263 372.06 536.147 372.016 536.059 371.928C535.971 371.84 535.927 371.724 535.927 371.58V371.004C535.775 371.348 535.543 371.616 535.231 371.808C534.919 371.992 534.559 372.084 534.151 372.084C533.775 372.084 533.427 372.008 533.107 371.856C532.795 371.704 532.547 371.492 532.363 371.22C532.179 370.948 532.087 370.648 532.087 370.32C532.087 369.88 532.199 369.54 532.423 369.3C532.647 369.052 533.015 368.876 533.527 368.772C534.039 368.66 534.751 368.604 535.663 368.604H535.927V368.208C535.927 367.728 535.827 367.376 535.627 367.152C535.435 366.928 535.119 366.816 534.679 366.816C534.135 366.816 533.583 366.964 533.023 367.26C532.807 367.396 532.655 367.464 532.567 367.464C532.471 367.464 532.391 367.428 532.327 367.356C532.263 367.284 532.231 367.192 532.231 367.08C532.231 366.968 532.263 366.872 532.327 366.792C532.399 366.704 532.511 366.616 532.663 366.528C532.943 366.368 533.259 366.244 533.611 366.156C533.971 366.06 534.327 366.012 534.679 366.012ZM534.283 371.316C534.763 371.316 535.155 371.156 535.459 370.836C535.771 370.508 535.927 370.088 535.927 369.576V369.228H535.711C535.007 369.228 534.471 369.26 534.103 369.324C533.735 369.38 533.471 369.48 533.311 369.624C533.159 369.76 533.083 369.964 533.083 370.236C533.083 370.548 533.195 370.808 533.419 371.016C533.651 371.216 533.939 371.316 534.283 371.316ZM545.158 366.012C546.454 366.012 547.102 366.784 547.102 368.328V371.58C547.102 371.732 547.058 371.852 546.97 371.94C546.882 372.02 546.766 372.06 546.622 372.06C546.478 372.06 546.358 372.02 546.262 371.94C546.174 371.852 546.13 371.732 546.13 371.58V368.352C546.13 367.816 546.034 367.428 545.842 367.188C545.65 366.948 545.35 366.828 544.942 366.828C544.454 366.828 544.07 366.992 543.79 367.32C543.51 367.648 543.37 368.092 543.37 368.652V371.58C543.37 371.732 543.322 371.852 543.226 371.94C543.138 372.02 543.022 372.06 542.878 372.06C542.734 372.06 542.618 372.02 542.53 371.94C542.442 371.852 542.398 371.732 542.398 371.58V368.352C542.398 367.816 542.302 367.428 542.11 367.188C541.918 366.948 541.614 366.828 541.198 366.828C540.718 366.828 540.334 366.992 540.046 367.32C539.766 367.648 539.626 368.092 539.626 368.652V371.58C539.626 371.732 539.582 371.852 539.494 371.94C539.406 372.02 539.29 372.06 539.146 372.06C539.002 372.06 538.882 372.02 538.786 371.94C538.698 371.852 538.654 371.732 538.654 371.58V366.516C538.654 366.372 538.698 366.256 538.786 366.168C538.882 366.08 539.002 366.036 539.146 366.036C539.282 366.036 539.394 366.08 539.482 366.168C539.57 366.248 539.614 366.36 539.614 366.504V367.08C539.79 366.736 540.034 366.472 540.346 366.288C540.658 366.104 541.018 366.012 541.426 366.012C542.338 366.012 542.934 366.396 543.214 367.164C543.382 366.812 543.638 366.532 543.982 366.324C544.326 366.116 544.718 366.012 545.158 366.012Z" fill="#030229"/>
<path opacity="0.7" d="M587.6 372.096C586.632 372.096 585.896 371.728 585.392 370.992C584.888 370.256 584.636 369.184 584.636 367.776C584.636 366.36 584.888 365.284 585.392 364.548C585.896 363.812 586.632 363.444 587.6 363.444C588.568 363.444 589.304 363.812 589.808 364.548C590.312 365.276 590.564 366.348 590.564 367.764C590.564 369.18 590.312 370.256 589.808 370.992C589.304 371.728 588.568 372.096 587.6 372.096ZM587.6 371.268C588.272 371.268 588.768 370.984 589.088 370.416C589.408 369.848 589.568 368.964 589.568 367.764C589.568 366.556 589.408 365.672 589.088 365.112C588.776 364.552 588.28 364.272 587.6 364.272C586.928 364.272 586.432 364.556 586.112 365.124C585.792 365.684 585.632 366.564 585.632 367.764C585.632 368.964 585.792 369.848 586.112 370.416C586.432 370.984 586.928 371.268 587.6 371.268ZM595.143 366.684C595.655 366.684 596.111 366.796 596.511 367.02C596.911 367.244 597.223 367.56 597.447 367.968C597.671 368.376 597.783 368.844 597.783 369.372C597.783 369.892 597.667 370.36 597.435 370.776C597.203 371.192 596.879 371.516 596.463 371.748C596.047 371.98 595.579 372.096 595.059 372.096C594.035 372.096 593.243 371.74 592.683 371.028C592.131 370.316 591.855 369.3 591.855 367.98C591.855 367.036 591.983 366.224 592.239 365.544C592.495 364.864 592.867 364.344 593.355 363.984C593.843 363.624 594.423 363.444 595.095 363.444C595.551 363.444 596.003 363.532 596.451 363.708C596.907 363.884 597.295 364.124 597.615 364.428C597.751 364.556 597.819 364.692 597.819 364.836C597.819 364.956 597.787 365.056 597.723 365.136C597.659 365.216 597.583 365.256 597.495 365.256C597.383 365.256 597.267 365.212 597.147 365.124C596.451 364.556 595.775 364.272 595.119 364.272C594.407 364.272 593.851 364.596 593.451 365.244C593.051 365.892 592.851 366.8 592.851 367.968V368.124C593.035 367.676 593.331 367.324 593.739 367.068C594.155 366.812 594.623 366.684 595.143 366.684ZM595.011 371.268C595.555 371.268 595.991 371.096 596.319 370.752C596.647 370.408 596.811 369.952 596.811 369.384C596.811 368.816 596.643 368.364 596.307 368.028C595.979 367.684 595.543 367.512 594.999 367.512C594.447 367.512 593.995 367.688 593.643 368.04C593.299 368.384 593.127 368.832 593.127 369.384C593.127 369.944 593.299 370.4 593.643 370.752C593.995 371.096 594.451 371.268 595.011 371.268ZM601.667 366.012C603.131 366.012 603.863 366.78 603.863 368.316V371.58C603.863 371.724 603.819 371.84 603.731 371.928C603.651 372.016 603.539 372.06 603.395 372.06C603.251 372.06 603.135 372.016 603.047 371.928C602.959 371.84 602.915 371.724 602.915 371.58V371.004C602.763 371.348 602.531 371.616 602.219 371.808C601.907 371.992 601.547 372.084 601.139 372.084C600.763 372.084 600.415 372.008 600.095 371.856C599.783 371.704 599.535 371.492 599.351 371.22C599.167 370.948 599.075 370.648 599.075 370.32C599.075 369.88 599.187 369.54 599.411 369.3C599.635 369.052 600.003 368.876 600.515 368.772C601.027 368.66 601.739 368.604 602.651 368.604H602.915V368.208C602.915 367.728 602.815 367.376 602.615 367.152C602.423 366.928 602.107 366.816 601.667 366.816C601.123 366.816 600.571 366.964 600.011 367.26C599.795 367.396 599.643 367.464 599.555 367.464C599.459 367.464 599.379 367.428 599.315 367.356C599.251 367.284 599.219 367.192 599.219 367.08C599.219 366.968 599.251 366.872 599.315 366.792C599.387 366.704 599.499 366.616 599.651 366.528C599.931 366.368 600.247 366.244 600.599 366.156C600.959 366.06 601.315 366.012 601.667 366.012ZM601.271 371.316C601.751 371.316 602.143 371.156 602.447 370.836C602.759 370.508 602.915 370.088 602.915 369.576V369.228H602.699C601.995 369.228 601.459 369.26 601.091 369.324C600.723 369.38 600.459 369.48 600.299 369.624C600.147 369.76 600.071 369.964 600.071 370.236C600.071 370.548 600.183 370.808 600.407 371.016C600.639 371.216 600.927 371.316 601.271 371.316ZM612.146 366.012C613.442 366.012 614.09 366.784 614.09 368.328V371.58C614.09 371.732 614.046 371.852 613.958 371.94C613.87 372.02 613.754 372.06 613.61 372.06C613.466 372.06 613.346 372.02 613.25 371.94C613.162 371.852 613.118 371.732 613.118 371.58V368.352C613.118 367.816 613.022 367.428 612.83 367.188C612.638 366.948 612.338 366.828 611.93 366.828C611.442 366.828 611.058 366.992 610.778 367.32C610.498 367.648 610.358 368.092 610.358 368.652V371.58C610.358 371.732 610.31 371.852 610.214 371.94C610.126 372.02 610.01 372.06 609.866 372.06C609.722 372.06 609.606 372.02 609.518 371.94C609.43 371.852 609.386 371.732 609.386 371.58V368.352C609.386 367.816 609.29 367.428 609.098 367.188C608.906 366.948 608.602 366.828 608.186 366.828C607.706 366.828 607.322 366.992 607.034 367.32C606.754 367.648 606.614 368.092 606.614 368.652V371.58C606.614 371.732 606.57 371.852 606.482 371.94C606.394 372.02 606.278 372.06 606.134 372.06C605.99 372.06 605.87 372.02 605.774 371.94C605.686 371.852 605.642 371.732 605.642 371.58V366.516C605.642 366.372 605.686 366.256 605.774 366.168C605.87 366.08 605.99 366.036 606.134 366.036C606.27 366.036 606.382 366.08 606.47 366.168C606.558 366.248 606.602 366.36 606.602 366.504V367.08C606.778 366.736 607.022 366.472 607.334 366.288C607.646 366.104 608.006 366.012 608.414 366.012C609.326 366.012 609.922 366.396 610.202 367.164C610.37 366.812 610.626 366.532 610.97 366.324C611.314 366.116 611.706 366.012 612.146 366.012Z" fill="#030229"/>
<path opacity="0.7" d="M654.6 372.096C653.632 372.096 652.896 371.728 652.392 370.992C651.888 370.256 651.636 369.184 651.636 367.776C651.636 366.36 651.888 365.284 652.392 364.548C652.896 363.812 653.632 363.444 654.6 363.444C655.568 363.444 656.304 363.812 656.808 364.548C657.312 365.276 657.564 366.348 657.564 367.764C657.564 369.18 657.312 370.256 656.808 370.992C656.304 371.728 655.568 372.096 654.6 372.096ZM654.6 371.268C655.272 371.268 655.768 370.984 656.088 370.416C656.408 369.848 656.568 368.964 656.568 367.764C656.568 366.556 656.408 365.672 656.088 365.112C655.776 364.552 655.28 364.272 654.6 364.272C653.928 364.272 653.432 364.556 653.112 365.124C652.792 365.684 652.632 366.564 652.632 367.764C652.632 368.964 652.792 369.848 653.112 370.416C653.432 370.984 653.928 371.268 654.6 371.268ZM664.231 363.54C664.375 363.54 664.483 363.58 664.555 363.66C664.635 363.732 664.675 363.828 664.675 363.948C664.675 364.06 664.639 364.184 664.567 364.32L660.583 371.82C660.487 371.996 660.347 372.084 660.163 372.084C660.035 372.084 659.919 372.04 659.815 371.952C659.719 371.864 659.671 371.756 659.671 371.628C659.671 371.54 659.699 371.452 659.755 371.364L663.499 364.368H659.359C659.215 364.368 659.103 364.332 659.023 364.26C658.951 364.188 658.915 364.088 658.915 363.96C658.915 363.824 658.951 363.72 659.023 363.648C659.103 363.576 659.215 363.54 659.359 363.54H664.231ZM668.679 366.012C670.143 366.012 670.875 366.78 670.875 368.316V371.58C670.875 371.724 670.831 371.84 670.743 371.928C670.663 372.016 670.551 372.06 670.407 372.06C670.263 372.06 670.147 372.016 670.059 371.928C669.971 371.84 669.927 371.724 669.927 371.58V371.004C669.775 371.348 669.543 371.616 669.231 371.808C668.919 371.992 668.559 372.084 668.151 372.084C667.775 372.084 667.427 372.008 667.107 371.856C666.795 371.704 666.547 371.492 666.363 371.22C666.179 370.948 666.087 370.648 666.087 370.32C666.087 369.88 666.199 369.54 666.423 369.3C666.647 369.052 667.015 368.876 667.527 368.772C668.039 368.66 668.751 368.604 669.663 368.604H669.927V368.208C669.927 367.728 669.827 367.376 669.627 367.152C669.435 366.928 669.119 366.816 668.679 366.816C668.135 366.816 667.583 366.964 667.023 367.26C666.807 367.396 666.655 367.464 666.567 367.464C666.471 367.464 666.391 367.428 666.327 367.356C666.263 367.284 666.231 367.192 666.231 367.08C666.231 366.968 666.263 366.872 666.327 366.792C666.399 366.704 666.511 366.616 666.663 366.528C666.943 366.368 667.259 366.244 667.611 366.156C667.971 366.06 668.327 366.012 668.679 366.012ZM668.283 371.316C668.763 371.316 669.155 371.156 669.459 370.836C669.771 370.508 669.927 370.088 669.927 369.576V369.228H669.711C669.007 369.228 668.471 369.26 668.103 369.324C667.735 369.38 667.471 369.48 667.311 369.624C667.159 369.76 667.083 369.964 667.083 370.236C667.083 370.548 667.195 370.808 667.419 371.016C667.651 371.216 667.939 371.316 668.283 371.316ZM679.158 366.012C680.454 366.012 681.102 366.784 681.102 368.328V371.58C681.102 371.732 681.058 371.852 680.97 371.94C680.882 372.02 680.766 372.06 680.622 372.06C680.478 372.06 680.358 372.02 680.262 371.94C680.174 371.852 680.13 371.732 680.13 371.58V368.352C680.13 367.816 680.034 367.428 679.842 367.188C679.65 366.948 679.35 366.828 678.942 366.828C678.454 366.828 678.07 366.992 677.79 367.32C677.51 367.648 677.37 368.092 677.37 368.652V371.58C677.37 371.732 677.322 371.852 677.226 371.94C677.138 372.02 677.022 372.06 676.878 372.06C676.734 372.06 676.618 372.02 676.53 371.94C676.442 371.852 676.398 371.732 676.398 371.58V368.352C676.398 367.816 676.302 367.428 676.11 367.188C675.918 366.948 675.614 366.828 675.198 366.828C674.718 366.828 674.334 366.992 674.046 367.32C673.766 367.648 673.626 368.092 673.626 368.652V371.58C673.626 371.732 673.582 371.852 673.494 371.94C673.406 372.02 673.29 372.06 673.146 372.06C673.002 372.06 672.882 372.02 672.786 371.94C672.698 371.852 672.654 371.732 672.654 371.58V366.516C672.654 366.372 672.698 366.256 672.786 366.168C672.882 366.08 673.002 366.036 673.146 366.036C673.282 366.036 673.394 366.08 673.482 366.168C673.57 366.248 673.614 366.36 673.614 366.504V367.08C673.79 366.736 674.034 366.472 674.346 366.288C674.658 366.104 675.018 366.012 675.426 366.012C676.338 366.012 676.934 366.396 677.214 367.164C677.382 366.812 677.638 366.532 677.982 366.324C678.326 366.116 678.718 366.012 679.158 366.012Z" fill="#030229"/>
</g>
<path d="M63 205.5L70.5881 213.274C78.2206 220.758 93.6187 236.742 108.706 248.149C123.838 259.992 138.881 267.258 154.412 252C169.5 236.742 184.587 197.508 200.119 197.726C215.162 197.508 230.294 236.742 245.381 248.149C260.779 259.992 276 244.008 291.087 252C306.441 259.992 321.706 290.508 336.794 279.101C352.059 267.258 367.412 213.492 382.5 217.125C397.721 220.758 413.119 249.114 428.206 279.847C443.338 310.872 458.381 310.872 473.912 291.472C491.109 272.904 499.505 265.64 517.997 255.413C537.505 246.028 549.794 259.992 564.881 244.226C580.279 228.75 595.5 182.25 610.587 174.476C625.941 166.992 641.206 197.508 656.294 201.649C671.559 205.5 686.912 182.25 694.456 170.625L702 159V345H694.412C686.779 345 671.381 345 656.294 345C641.162 345 626.119 345 610.587 345C595.5 345 580.412 345 564.881 345C549.838 345 534.706 345 519.619 345C504.221 345 489 345 473.912 345C458.559 345 443.294 345 428.206 345C412.941 345 397.587 345 382.5 345C367.279 345 351.881 345 336.794 345C321.662 345 306.619 345 291.087 345C276 345 260.912 345 245.381 345C230.338 345 215.206 345 200.119 345C184.721 345 169.5 345 154.412 345C139.059 345 123.794 345 108.706 345C93.4412 345 78.0875 345 70.5437 345H63V205.5Z" fill="url(#paint0_linear_609_2)"/>
<g filter="url(#filter0_d_609_2)">
<path d="M63 207.789L70.5881 215.946C78.2206 223.798 93.6187 240.569 108.706 252.537C123.838 264.963 138.881 272.587 154.412 256.578C169.5 240.569 184.587 199.403 200.119 199.632C215.162 199.403 230.294 240.569 245.381 252.537C260.779 264.963 276 248.192 291.087 256.578C306.441 264.963 321.706 296.981 336.794 285.013C352.059 272.587 367.412 216.174 382.5 219.986C397.721 223.798 413.119 253.549 428.206 285.796C443.338 318.347 458.381 318.347 473.912 297.993C491.109 278.51 499.505 270.889 517.997 260.159C537.505 250.311 549.794 264.963 564.881 248.421C580.279 232.183 595.5 183.394 610.587 175.238C625.941 167.386 641.206 199.403 656.294 203.749C671.559 207.789 686.912 183.394 694.456 171.197L702 159" stroke="url(#paint1_linear_609_2)" stroke-width="4" stroke-linecap="round"/>
</g>
<g filter="url(#filter1_d_609_2)">
<circle cx="199" cy="200" r="7" fill="white"/>
<circle cx="199" cy="200" r="5.5" stroke="#AE8FF7" stroke-width="3"/>
</g>
<g filter="url(#filter2_d_609_2)">
<circle cx="281" cy="254" r="7" fill="white"/>
<circle cx="281" cy="254" r="5.5" stroke="#AE8FF7" stroke-width="3"/>
</g>
<g filter="url(#filter3_d_609_2)">
<circle cx="382" cy="220" r="7" fill="white"/>
<circle cx="382" cy="220" r="5.5" stroke="#AE8FF7" stroke-width="3"/>
</g>
<g filter="url(#filter4_d_609_2)">
<circle cx="525" cy="258" r="7" fill="white"/>
<circle cx="525" cy="258" r="5.5" stroke="#AE8FF7" stroke-width="3"/>
</g>
<g filter="url(#filter5_d_609_2)">
<circle cx="616" cy="174" r="7" fill="white"/>
<circle cx="616" cy="174" r="5.5" stroke="#AE8FF7" stroke-width="3"/>
</g>
<path opacity="0.7" d="M27.538 43.144C27.166 43.144 26.878 43.042 26.674 42.838C26.482 42.622 26.386 42.328 26.386 41.956V31.48C26.386 31.096 26.488 30.808 26.692 30.616C26.896 30.412 27.184 30.31 27.556 30.31H31.894C33.286 30.31 34.36 30.646 35.116 31.318C35.872 31.978 36.25 32.908 36.25 34.108C36.25 34.888 36.076 35.56 35.728 36.124C35.392 36.688 34.9 37.12 34.252 37.42C33.604 37.72 32.818 37.87 31.894 37.87L32.056 37.6H32.65C33.142 37.6 33.568 37.72 33.928 37.96C34.3 38.2 34.624 38.578 34.9 39.094L36.25 41.596C36.394 41.848 36.46 42.094 36.448 42.334C36.436 42.574 36.346 42.772 36.178 42.928C36.01 43.072 35.764 43.144 35.44 43.144C35.116 43.144 34.852 43.078 34.648 42.946C34.444 42.802 34.264 42.586 34.108 42.298L32.29 38.95C32.074 38.542 31.816 38.272 31.516 38.14C31.228 37.996 30.856 37.924 30.4 37.924H28.69V41.956C28.69 42.328 28.594 42.622 28.402 42.838C28.21 43.042 27.922 43.144 27.538 43.144ZM28.69 36.214H31.498C32.326 36.214 32.95 36.046 33.37 35.71C33.802 35.362 34.018 34.846 34.018 34.162C34.018 33.49 33.802 32.986 33.37 32.65C32.95 32.302 32.326 32.128 31.498 32.128H28.69V36.214ZM42.6193 43.18C41.6233 43.18 40.7653 42.994 40.0453 42.622C39.3253 42.25 38.7673 41.722 38.3713 41.038C37.9873 40.354 37.7953 39.544 37.7953 38.608C37.7953 37.696 37.9813 36.898 38.3533 36.214C38.7373 35.53 39.2593 34.996 39.9193 34.612C40.5913 34.216 41.3533 34.018 42.2053 34.018C42.8293 34.018 43.3873 34.12 43.8793 34.324C44.3833 34.528 44.8093 34.822 45.1573 35.206C45.5173 35.59 45.7873 36.058 45.9673 36.61C46.1593 37.15 46.2553 37.762 46.2553 38.446C46.2553 38.662 46.1773 38.83 46.0213 38.95C45.8773 39.058 45.6673 39.112 45.3913 39.112H39.6133V37.816H44.6713L44.3833 38.086C44.3833 37.534 44.2993 37.072 44.1313 36.7C43.9753 36.328 43.7413 36.046 43.4293 35.854C43.1293 35.65 42.7513 35.548 42.2953 35.548C41.7913 35.548 41.3593 35.668 40.9993 35.908C40.6513 36.136 40.3813 36.466 40.1893 36.898C40.0093 37.318 39.9193 37.822 39.9193 38.41V38.536C39.9193 39.52 40.1473 40.258 40.6033 40.75C41.0713 41.23 41.7553 41.47 42.6553 41.47C42.9673 41.47 43.3153 41.434 43.6993 41.362C44.0953 41.278 44.4673 41.14 44.8153 40.948C45.0673 40.804 45.2893 40.744 45.4813 40.768C45.6733 40.78 45.8233 40.846 45.9313 40.966C46.0513 41.086 46.1233 41.236 46.1473 41.416C46.1713 41.584 46.1353 41.758 46.0393 41.938C45.9553 42.118 45.8053 42.274 45.5893 42.406C45.1693 42.67 44.6833 42.868 44.1313 43C43.5913 43.12 43.0873 43.18 42.6193 43.18ZM49.1532 46.384C48.7932 46.384 48.5172 46.288 48.3252 46.096C48.1332 45.904 48.0372 45.622 48.0372 45.25V35.188C48.0372 34.816 48.1332 34.534 48.3252 34.342C48.5172 34.15 48.7872 34.054 49.1352 34.054C49.4952 34.054 49.7712 34.15 49.9632 34.342C50.1552 34.534 50.2512 34.816 50.2512 35.188V36.592L50.0532 36.052C50.2332 35.44 50.5992 34.948 51.1512 34.576C51.7152 34.204 52.3692 34.018 53.1132 34.018C53.8812 34.018 54.5532 34.204 55.1292 34.576C55.7172 34.948 56.1732 35.476 56.4972 36.16C56.8212 36.832 56.9832 37.642 56.9832 38.59C56.9832 39.526 56.8212 40.342 56.4972 41.038C56.1732 41.722 55.7232 42.25 55.1472 42.622C54.5712 42.994 53.8932 43.18 53.1132 43.18C52.3812 43.18 51.7392 43 51.1872 42.64C50.6352 42.268 50.2632 41.788 50.0712 41.2H50.2872V45.25C50.2872 45.622 50.1852 45.904 49.9812 46.096C49.7892 46.288 49.5132 46.384 49.1532 46.384ZM52.4832 41.47C52.9272 41.47 53.3172 41.362 53.6532 41.146C53.9892 40.93 54.2472 40.612 54.4272 40.192C54.6192 39.76 54.7152 39.226 54.7152 38.59C54.7152 37.63 54.5112 36.916 54.1032 36.448C53.6952 35.968 53.1552 35.728 52.4832 35.728C52.0392 35.728 51.6492 35.836 51.3132 36.052C50.9772 36.256 50.7132 36.574 50.5212 37.006C50.3412 37.426 50.2512 37.954 50.2512 38.59C50.2512 39.538 50.4552 40.258 50.8632 40.75C51.2712 41.23 51.8112 41.47 52.4832 41.47ZM62.8442 43.18C61.9322 43.18 61.1402 42.994 60.4682 42.622C59.7962 42.25 59.2742 41.722 58.9022 41.038C58.5302 40.342 58.3442 39.526 58.3442 38.59C58.3442 37.882 58.4462 37.252 58.6502 36.7C58.8662 36.136 59.1722 35.656 59.5682 35.26C59.9642 34.852 60.4382 34.546 60.9902 34.342C61.5422 34.126 62.1602 34.018 62.8442 34.018C63.7562 34.018 64.5482 34.204 65.2202 34.576C65.8922 34.948 66.4142 35.476 66.7862 36.16C67.1582 36.844 67.3442 37.654 67.3442 38.59C67.3442 39.298 67.2362 39.934 67.0202 40.498C66.8162 41.062 66.5162 41.548 66.1202 41.956C65.7242 42.352 65.2502 42.658 64.6982 42.874C64.1462 43.078 63.5282 43.18 62.8442 43.18ZM62.8442 41.47C63.2882 41.47 63.6782 41.362 64.0142 41.146C64.3502 40.93 64.6082 40.612 64.7882 40.192C64.9802 39.76 65.0762 39.226 65.0762 38.59C65.0762 37.63 64.8722 36.916 64.4642 36.448C64.0562 35.968 63.5162 35.728 62.8442 35.728C62.4002 35.728 62.0102 35.836 61.6742 36.052C61.3382 36.256 61.0742 36.574 60.8822 37.006C60.7022 37.426 60.6122 37.954 60.6122 38.59C60.6122 39.538 60.8162 40.258 61.2242 40.75C61.6322 41.23 62.1722 41.47 62.8442 41.47ZM70.3533 43.144C69.9813 43.144 69.6933 43.048 69.4893 42.856C69.2973 42.652 69.2013 42.364 69.2013 41.992V35.188C69.2013 34.816 69.2973 34.534 69.4893 34.342C69.6813 34.15 69.9513 34.054 70.2993 34.054C70.6473 34.054 70.9173 34.15 71.1093 34.342C71.3013 34.534 71.3973 34.816 71.3973 35.188V36.322H71.2173C71.3853 35.602 71.7153 35.056 72.2073 34.684C72.6993 34.312 73.3533 34.09 74.1693 34.018C74.4213 33.994 74.6193 34.06 74.7633 34.216C74.9193 34.36 75.0093 34.588 75.0333 34.9C75.0573 35.2 74.9853 35.446 74.8173 35.638C74.6613 35.818 74.4213 35.926 74.0973 35.962L73.7013 35.998C72.9693 36.07 72.4173 36.298 72.0453 36.682C71.6733 37.054 71.4873 37.582 71.4873 38.266V41.992C71.4873 42.364 71.3913 42.652 71.1993 42.856C71.0073 43.048 70.7253 43.144 70.3533 43.144ZM80.7918 43.18C80.0118 43.18 79.3578 43.048 78.8298 42.784C78.3138 42.52 77.9298 42.136 77.6778 41.632C77.4258 41.116 77.2998 40.48 77.2998 39.724V35.89H76.3638C76.0758 35.89 75.8538 35.818 75.6978 35.674C75.5418 35.518 75.4638 35.308 75.4638 35.044C75.4638 34.768 75.5418 34.558 75.6978 34.414C75.8538 34.27 76.0758 34.198 76.3638 34.198H77.2998V32.56C77.2998 32.188 77.3958 31.906 77.5878 31.714C77.7918 31.522 78.0738 31.426 78.4338 31.426C78.7938 31.426 79.0698 31.522 79.2618 31.714C79.4538 31.906 79.5498 32.188 79.5498 32.56V34.198H81.4578C81.7458 34.198 81.9678 34.27 82.1238 34.414C82.2798 34.558 82.3578 34.768 82.3578 35.044C82.3578 35.308 82.2798 35.518 82.1238 35.674C81.9678 35.818 81.7458 35.89 81.4578 35.89H79.5498V39.598C79.5498 40.174 79.6758 40.606 79.9278 40.894C80.1798 41.182 80.5878 41.326 81.1518 41.326C81.3558 41.326 81.5358 41.308 81.6918 41.272C81.8478 41.236 81.9858 41.212 82.1058 41.2C82.2498 41.188 82.3698 41.236 82.4658 41.344C82.5618 41.44 82.6098 41.644 82.6098 41.956C82.6098 42.196 82.5678 42.412 82.4838 42.604C82.4118 42.784 82.2738 42.91 82.0698 42.982C81.9138 43.03 81.7098 43.072 81.4578 43.108C81.2058 43.156 80.9838 43.18 80.7918 43.18ZM87.9182 43.18C86.9222 43.18 86.0642 42.994 85.3442 42.622C84.6242 42.25 84.0662 41.722 83.6702 41.038C83.2862 40.354 83.0942 39.544 83.0942 38.608C83.0942 37.696 83.2802 36.898 83.6522 36.214C84.0362 35.53 84.5582 34.996 85.2182 34.612C85.8902 34.216 86.6522 34.018 87.5042 34.018C88.1282 34.018 88.6862 34.12 89.1782 34.324C89.6822 34.528 90.1082 34.822 90.4562 35.206C90.8162 35.59 91.0862 36.058 91.2662 36.61C91.4582 37.15 91.5542 37.762 91.5542 38.446C91.5542 38.662 91.4762 38.83 91.3202 38.95C91.1762 39.058 90.9662 39.112 90.6902 39.112H84.9122V37.816H89.9702L89.6822 38.086C89.6822 37.534 89.5982 37.072 89.4302 36.7C89.2742 36.328 89.0402 36.046 88.7282 35.854C88.4282 35.65 88.0502 35.548 87.5942 35.548C87.0902 35.548 86.6582 35.668 86.2982 35.908C85.9502 36.136 85.6802 36.466 85.4882 36.898C85.3082 37.318 85.2182 37.822 85.2182 38.41V38.536C85.2182 39.52 85.4462 40.258 85.9022 40.75C86.3702 41.23 87.0542 41.47 87.9542 41.47C88.2662 41.47 88.6142 41.434 88.9982 41.362C89.3942 41.278 89.7662 41.14 90.1142 40.948C90.3662 40.804 90.5882 40.744 90.7802 40.768C90.9722 40.78 91.1222 40.846 91.2302 40.966C91.3502 41.086 91.4222 41.236 91.4462 41.416C91.4702 41.584 91.4342 41.758 91.3382 41.938C91.2542 42.118 91.1042 42.274 90.8882 42.406C90.4682 42.67 89.9822 42.868 89.4302 43C88.8902 43.12 88.3862 43.18 87.9182 43.18ZM96.558 43.18C96.042 43.18 95.496 43.126 94.92 43.018C94.344 42.91 93.828 42.724 93.372 42.46C93.18 42.34 93.042 42.202 92.958 42.046C92.886 41.878 92.856 41.716 92.868 41.56C92.892 41.392 92.952 41.248 93.048 41.128C93.156 41.008 93.288 40.93 93.444 40.894C93.612 40.858 93.792 40.888 93.984 40.984C94.464 41.212 94.914 41.374 95.334 41.47C95.754 41.554 96.168 41.596 96.576 41.596C97.152 41.596 97.578 41.5 97.854 41.308C98.142 41.104 98.286 40.84 98.286 40.516C98.286 40.24 98.19 40.03 97.998 39.886C97.818 39.73 97.542 39.616 97.17 39.544L95.37 39.202C94.626 39.058 94.056 38.788 93.66 38.392C93.276 37.984 93.084 37.462 93.084 36.826C93.084 36.25 93.24 35.752 93.552 35.332C93.876 34.912 94.32 34.588 94.884 34.36C95.448 34.132 96.096 34.018 96.828 34.018C97.356 34.018 97.848 34.078 98.304 34.198C98.772 34.306 99.222 34.48 99.654 34.72C99.834 34.816 99.954 34.942 100.014 35.098C100.086 35.254 100.104 35.416 100.068 35.584C100.032 35.74 99.96 35.884 99.852 36.016C99.744 36.136 99.606 36.214 99.438 36.25C99.282 36.274 99.102 36.238 98.898 36.142C98.526 35.95 98.166 35.812 97.818 35.728C97.482 35.644 97.158 35.602 96.846 35.602C96.258 35.602 95.82 35.704 95.532 35.908C95.256 36.112 95.118 36.382 95.118 36.718C95.118 36.97 95.202 37.18 95.37 37.348C95.538 37.516 95.796 37.63 96.144 37.69L97.944 38.032C98.724 38.176 99.312 38.44 99.708 38.824C100.116 39.208 100.32 39.724 100.32 40.372C100.32 41.248 99.978 41.938 99.294 42.442C98.61 42.934 97.698 43.18 96.558 43.18Z" fill="#030229"/>
<g filter="url(#filter6_d_609_2)">
<path fill-rule="evenodd" clip-rule="evenodd" d="M348 144C342.477 144 338 148.477 338 154V190C338 195.523 342.477 200 348 200H376.804L381.134 207.5C381.519 208.167 382.481 208.167 382.866 207.5L387.196 200H417C422.523 200 427 195.523 427 190V154C427 148.477 422.523 144 417 144H348Z" fill="#030229"/>
</g>
<path opacity="0.8" d="M371.14 164.084C370.988 164.084 370.864 164.048 370.768 163.976C370.672 163.904 370.596 163.796 370.54 163.652L367.24 156.104C367.184 155.968 367.168 155.856 367.192 155.768C367.216 155.672 367.268 155.596 367.348 155.54C367.436 155.484 367.536 155.456 367.648 155.456C367.8 155.456 367.912 155.492 367.984 155.564C368.064 155.628 368.128 155.724 368.176 155.852L371.344 163.208H370.96L374.116 155.84C374.172 155.72 374.24 155.628 374.32 155.564C374.4 155.492 374.512 155.456 374.656 155.456C374.768 155.456 374.86 155.484 374.932 155.54C375.012 155.596 375.06 155.672 375.076 155.768C375.1 155.864 375.084 155.976 375.028 156.104L371.728 163.652C371.672 163.796 371.596 163.904 371.5 163.976C371.412 164.048 371.292 164.084 371.14 164.084ZM378.11 164.108C377.494 164.108 376.962 163.988 376.514 163.748C376.074 163.5 375.73 163.152 375.482 162.704C375.242 162.256 375.122 161.72 375.122 161.096C375.122 160.488 375.242 159.96 375.482 159.512C375.722 159.056 376.05 158.7 376.466 158.444C376.89 158.188 377.378 158.06 377.93 158.06C378.322 158.06 378.674 158.128 378.986 158.264C379.298 158.392 379.562 158.58 379.778 158.828C380.002 159.076 380.17 159.376 380.282 159.728C380.402 160.08 380.462 160.476 380.462 160.916C380.462 161.044 380.426 161.14 380.354 161.204C380.282 161.26 380.178 161.288 380.042 161.288H375.866V160.652H379.814L379.622 160.808C379.622 160.376 379.558 160.012 379.43 159.716C379.302 159.412 379.114 159.18 378.866 159.02C378.626 158.86 378.322 158.78 377.954 158.78C377.546 158.78 377.198 158.876 376.91 159.068C376.63 159.252 376.418 159.512 376.274 159.848C376.13 160.176 376.058 160.56 376.058 161V161.072C376.058 161.808 376.234 162.368 376.586 162.752C376.946 163.136 377.454 163.328 378.11 163.328C378.382 163.328 378.65 163.292 378.914 163.22C379.186 163.148 379.45 163.028 379.706 162.86C379.818 162.788 379.918 162.756 380.006 162.764C380.102 162.764 380.178 162.792 380.234 162.848C380.29 162.896 380.326 162.96 380.342 163.04C380.366 163.112 380.358 163.192 380.318 163.28C380.286 163.368 380.218 163.444 380.114 163.508C379.85 163.7 379.538 163.848 379.178 163.952C378.818 164.056 378.462 164.108 378.11 164.108ZM382.349 164.084C382.189 164.084 382.069 164.04 381.989 163.952C381.909 163.864 381.869 163.74 381.869 163.58V158.576C381.869 158.416 381.909 158.296 381.989 158.216C382.069 158.128 382.185 158.084 382.337 158.084C382.489 158.084 382.605 158.128 382.685 158.216C382.773 158.296 382.817 158.416 382.817 158.576V159.608L382.685 159.464C382.853 159 383.125 158.652 383.501 158.42C383.885 158.18 384.325 158.06 384.821 158.06C385.285 158.06 385.669 158.144 385.973 158.312C386.285 158.48 386.517 158.736 386.669 159.08C386.821 159.416 386.897 159.844 386.897 160.364V163.58C386.897 163.74 386.853 163.864 386.765 163.952C386.685 164.04 386.569 164.084 386.417 164.084C386.257 164.084 386.133 164.04 386.045 163.952C385.965 163.864 385.925 163.74 385.925 163.58V160.424C385.925 159.88 385.817 159.484 385.601 159.236C385.393 158.98 385.057 158.852 384.593 158.852C384.057 158.852 383.629 159.02 383.309 159.356C382.997 159.684 382.841 160.124 382.841 160.676V163.58C382.841 163.916 382.677 164.084 382.349 164.084ZM391.029 164.108C390.573 164.108 390.189 164.028 389.877 163.868C389.573 163.7 389.345 163.46 389.193 163.148C389.041 162.828 388.965 162.44 388.965 161.984V158.924H388.161C388.025 158.924 387.921 158.892 387.849 158.828C387.777 158.756 387.741 158.66 387.741 158.54C387.741 158.42 387.777 158.328 387.849 158.264C387.921 158.2 388.025 158.168 388.161 158.168H388.965V156.788C388.965 156.628 389.009 156.508 389.097 156.428C389.185 156.34 389.305 156.296 389.457 156.296C389.609 156.296 389.725 156.34 389.805 156.428C389.893 156.508 389.937 156.628 389.937 156.788V158.168H391.449C391.585 158.168 391.689 158.2 391.761 158.264C391.833 158.328 391.869 158.42 391.869 158.54C391.869 158.66 391.833 158.756 391.761 158.828C391.689 158.892 391.585 158.924 391.449 158.924H389.937V161.888C389.937 162.344 390.033 162.692 390.225 162.932C390.417 163.164 390.729 163.28 391.161 163.28C391.313 163.28 391.441 163.264 391.545 163.232C391.657 163.2 391.749 163.184 391.821 163.184C391.893 163.176 391.953 163.2 392.001 163.256C392.049 163.312 392.073 163.408 392.073 163.544C392.073 163.64 392.053 163.728 392.013 163.808C391.981 163.888 391.921 163.944 391.833 163.976C391.737 164.008 391.609 164.036 391.449 164.06C391.297 164.092 391.157 164.108 391.029 164.108ZM394.721 164.108C394.321 164.108 393.961 164.032 393.641 163.88C393.329 163.72 393.081 163.504 392.897 163.232C392.713 162.96 392.621 162.656 392.621 162.32C392.621 161.888 392.729 161.548 392.945 161.3C393.169 161.052 393.533 160.876 394.037 160.772C394.549 160.668 395.245 160.616 396.125 160.616H396.665V161.252H396.137C395.489 161.252 394.977 161.284 394.601 161.348C394.233 161.404 393.973 161.504 393.821 161.648C393.677 161.792 393.605 161.996 393.605 162.26C393.605 162.588 393.717 162.856 393.941 163.064C394.173 163.272 394.485 163.376 394.877 163.376C395.197 163.376 395.477 163.3 395.717 163.148C395.965 162.996 396.157 162.788 396.293 162.524C396.437 162.26 396.509 161.956 396.509 161.612V160.244C396.509 159.748 396.409 159.392 396.209 159.176C396.009 158.952 395.681 158.84 395.225 158.84C394.945 158.84 394.665 158.876 394.385 158.948C394.105 159.02 393.809 159.136 393.497 159.296C393.385 159.352 393.289 159.372 393.209 159.356C393.129 159.332 393.065 159.288 393.017 159.224C392.969 159.16 392.941 159.088 392.933 159.008C392.925 158.92 392.941 158.836 392.981 158.756C393.029 158.676 393.101 158.612 393.197 158.564C393.549 158.388 393.897 158.26 394.241 158.18C394.585 158.1 394.913 158.06 395.225 158.06C395.729 158.06 396.145 158.144 396.473 158.312C396.801 158.472 397.045 158.72 397.205 159.056C397.365 159.384 397.445 159.808 397.445 160.328V163.58C397.445 163.74 397.405 163.864 397.325 163.952C397.253 164.04 397.145 164.084 397.001 164.084C396.849 164.084 396.733 164.04 396.653 163.952C396.573 163.864 396.533 163.74 396.533 163.58V162.644H396.641C396.577 162.948 396.453 163.208 396.269 163.424C396.093 163.64 395.873 163.808 395.609 163.928C395.345 164.048 395.049 164.108 394.721 164.108ZM401.216 164.108C400.856 164.108 400.492 164.064 400.124 163.976C399.764 163.888 399.428 163.736 399.116 163.52C399.036 163.464 398.98 163.4 398.948 163.328C398.916 163.248 398.904 163.172 398.912 163.1C398.928 163.02 398.96 162.952 399.008 162.896C399.064 162.84 399.128 162.808 399.2 162.8C399.28 162.784 399.368 162.8 399.464 162.848C399.776 163.04 400.076 163.176 400.364 163.256C400.66 163.328 400.952 163.364 401.24 163.364C401.696 163.364 402.04 163.28 402.272 163.112C402.504 162.944 402.62 162.716 402.62 162.428C402.62 162.204 402.544 162.028 402.392 161.9C402.24 161.764 402 161.66 401.672 161.588L400.58 161.348C400.076 161.244 399.7 161.064 399.452 160.808C399.212 160.552 399.092 160.22 399.092 159.812C399.092 159.452 399.184 159.144 399.368 158.888C399.56 158.624 399.828 158.42 400.172 158.276C400.516 158.132 400.916 158.06 401.372 158.06C401.724 158.06 402.056 158.108 402.368 158.204C402.688 158.292 402.976 158.436 403.232 158.636C403.312 158.692 403.364 158.76 403.388 158.84C403.42 158.912 403.424 158.988 403.4 159.068C403.384 159.14 403.348 159.204 403.292 159.26C403.236 159.308 403.168 159.336 403.088 159.344C403.008 159.352 402.924 159.328 402.836 159.272C402.596 159.112 402.352 158.996 402.104 158.924C401.856 158.844 401.612 158.804 401.372 158.804C400.924 158.804 400.584 158.892 400.352 159.068C400.12 159.244 400.004 159.476 400.004 159.764C400.004 159.988 400.076 160.172 400.22 160.316C400.364 160.46 400.588 160.564 400.892 160.628L401.984 160.856C402.504 160.968 402.892 161.148 403.148 161.396C403.412 161.636 403.544 161.964 403.544 162.38C403.544 162.908 403.332 163.328 402.908 163.64C402.484 163.952 401.92 164.108 401.216 164.108Z" fill="white"/>
<path d="M363.096 186C362.552 186 362.28 185.749 362.28 185.248C362.28 184.981 362.424 184.693 362.712 184.384L366.12 180.736C366.643 180.181 367.016 179.675 367.24 179.216C367.475 178.747 367.592 178.277 367.592 177.808C367.592 176.592 366.877 175.984 365.448 175.984C365.021 175.984 364.605 176.048 364.2 176.176C363.805 176.304 363.416 176.512 363.032 176.8C362.84 176.939 362.659 176.987 362.488 176.944C362.328 176.891 362.2 176.784 362.104 176.624C362.019 176.464 361.987 176.293 362.008 176.112C362.04 175.92 362.152 175.755 362.344 175.616C362.781 175.285 363.288 175.029 363.864 174.848C364.44 174.667 365.027 174.576 365.624 174.576C366.787 174.576 367.677 174.843 368.296 175.376C368.925 175.909 369.24 176.672 369.24 177.664C369.24 178.336 369.075 178.992 368.744 179.632C368.424 180.272 367.917 180.955 367.224 181.68L364.424 184.608H369.08C369.571 184.608 369.816 184.837 369.816 185.296C369.816 185.765 369.571 186 369.08 186H363.096ZM372.69 187.616C372.53 187.808 372.359 187.893 372.178 187.872C372.007 187.851 371.89 187.76 371.826 187.6C371.762 187.451 371.815 187.264 371.986 187.04C372.114 186.88 372.21 186.715 372.274 186.544C372.348 186.384 372.402 186.224 372.434 186.064C372.146 186.043 371.911 185.941 371.73 185.76C371.559 185.568 371.474 185.328 371.474 185.04C371.474 184.741 371.564 184.501 371.746 184.32C371.927 184.128 372.172 184.032 372.482 184.032C372.802 184.032 373.052 184.144 373.234 184.368C373.426 184.581 373.522 184.891 373.522 185.296C373.522 185.648 373.463 186.021 373.346 186.416C373.239 186.811 373.02 187.211 372.69 187.616ZM379.591 186.144C378.225 186.144 377.169 185.659 376.423 184.688C375.687 183.717 375.319 182.357 375.319 180.608C375.319 178.677 375.735 177.189 376.567 176.144C377.399 175.099 378.551 174.576 380.023 174.576C380.492 174.576 380.977 174.661 381.479 174.832C381.991 174.992 382.455 175.237 382.871 175.568C383.041 175.685 383.137 175.84 383.159 176.032C383.18 176.213 383.148 176.384 383.063 176.544C382.977 176.693 382.849 176.795 382.679 176.848C382.519 176.901 382.337 176.859 382.135 176.72C381.772 176.453 381.409 176.267 381.047 176.16C380.695 176.043 380.343 175.984 379.991 175.984C378.999 175.984 378.236 176.347 377.703 177.072C377.18 177.787 376.919 178.859 376.919 180.288V180.928C377.132 180.277 377.5 179.771 378.023 179.408C378.556 179.035 379.169 178.848 379.863 178.848C380.524 178.848 381.105 179.003 381.607 179.312C382.119 179.621 382.519 180.048 382.807 180.592C383.095 181.125 383.239 181.739 383.239 182.432C383.239 183.157 383.084 183.803 382.775 184.368C382.465 184.923 382.033 185.36 381.479 185.68C380.935 185.989 380.305 186.144 379.591 186.144ZM379.495 184.8C380.145 184.8 380.673 184.587 381.079 184.16C381.484 183.733 381.687 183.179 381.687 182.496C381.687 181.813 381.484 181.259 381.079 180.832C380.673 180.405 380.145 180.192 379.495 180.192C378.844 180.192 378.316 180.405 377.911 180.832C377.505 181.259 377.303 181.813 377.303 182.496C377.303 183.179 377.505 183.733 377.911 184.16C378.316 184.587 378.844 184.8 379.495 184.8ZM386.704 186.112C386.406 186.112 386.187 186.011 386.048 185.808C385.92 185.605 385.931 185.349 386.08 185.04L390.752 176.112H385.584C385.094 176.112 384.848 175.883 384.848 175.424C384.848 174.955 385.094 174.72 385.584 174.72H391.872C392.107 174.72 392.294 174.784 392.432 174.912C392.582 175.029 392.656 175.2 392.656 175.424C392.656 175.616 392.63 175.781 392.576 175.92C392.534 176.059 392.47 176.213 392.384 176.384L387.632 185.568C387.451 185.931 387.142 186.112 386.704 186.112ZM398.378 186.144C397.087 186.144 396.079 185.867 395.354 185.312C394.639 184.757 394.282 183.984 394.282 182.992C394.282 182.299 394.463 181.712 394.826 181.232C395.199 180.741 395.685 180.405 396.282 180.224C395.749 180 395.327 179.659 395.018 179.2C394.709 178.731 394.554 178.192 394.554 177.584C394.554 176.645 394.901 175.909 395.594 175.376C396.287 174.843 397.215 174.576 398.378 174.576C399.551 174.576 400.485 174.843 401.178 175.376C401.871 175.909 402.218 176.645 402.218 177.584C402.218 178.192 402.058 178.731 401.738 179.2C401.429 179.669 401.007 180.011 400.474 180.224C401.082 180.405 401.567 180.741 401.93 181.232C402.293 181.712 402.474 182.299 402.474 182.992C402.474 183.984 402.111 184.757 401.386 185.312C400.671 185.867 399.669 186.144 398.378 186.144ZM398.378 179.632C399.093 179.632 399.647 179.467 400.042 179.136C400.447 178.795 400.65 178.331 400.65 177.744C400.65 177.168 400.447 176.715 400.042 176.384C399.647 176.053 399.093 175.888 398.378 175.888C397.663 175.888 397.109 176.053 396.714 176.384C396.319 176.715 396.122 177.168 396.122 177.744C396.122 178.331 396.319 178.795 396.714 179.136C397.109 179.467 397.663 179.632 398.378 179.632ZM398.378 184.832C400.074 184.832 400.922 184.181 400.922 182.88C400.922 181.589 400.074 180.944 398.378 180.944C397.546 180.944 396.911 181.104 396.474 181.424C396.047 181.744 395.834 182.229 395.834 182.88C395.834 184.181 396.682 184.832 398.378 184.832Z" fill="white"/>
<line x1="381.5" y1="344" x2="381.5" y2="227" stroke="#605BFF" stroke-dasharray="2 7"/>
</g>
<defs>
<filter id="filter0_d_609_2" x="57" y="157" width="651" height="165.003" filterUnits="userSpaceOnUse" color-interpolation-filters="sRGB">
<feFlood flood-opacity="0" result="BackgroundImageFix"/>
<feColorMatrix in="SourceAlpha" type="matrix" values="0 0 0 0 0 0 0 0 0 0 0 0 0 0 0 0 0 0 127 0" result="hardAlpha"/>
<feOffset dy="4"/>
<feGaussianBlur stdDeviation="2"/>
<feColorMatrix type="matrix" values="0 0 0 0 0.376471 0 0 0 0 0.356863 0 0 0 0 1 0 0 0 0.17 0"/>
<feBlend mode="normal" in2="BackgroundImageFix" result="effect1_dropShadow_609_2"/>
<feBlend mode="normal" in="SourceGraphic" in2="effect1_dropShadow_609_2" result="shape"/>
</filter>
<filter id="filter1_d_609_2" x="188" y="193" width="22" height="22" filterUnits="userSpaceOnUse" color-interpolation-filters="sRGB">
<feFlood flood-opacity="0" result="BackgroundImageFix"/>
<feColorMatrix in="SourceAlpha" type="matrix" values="0 0 0 0 0 0 0 0 0 0 0 0 0 0 0 0 0 0 127 0" result="hardAlpha"/>
<feOffset dy="4"/>
<feGaussianBlur stdDeviation="2"/>
<feColorMatrix type="matrix" values="0 0 0 0 0.376471 0 0 0 0 0.356863 0 0 0 0 1 0 0 0 0.17 0"/>
<feBlend mode="normal" in2="BackgroundImageFix" result="effect1_dropShadow_609_2"/>
<feBlend mode="normal" in="SourceGraphic" in2="effect1_dropShadow_609_2" result="shape"/>
</filter>
<filter id="filter2_d_609_2" x="270" y="247" width="22" height="22" filterUnits="userSpaceOnUse" color-interpolation-filters="sRGB">
<feFlood flood-opacity="0" result="BackgroundImageFix"/>
<feColorMatrix in="SourceAlpha" type="matrix" values="0 0 0 0 0 0 0 0 0 0 0 0 0 0 0 0 0 0 127 0" result="hardAlpha"/>
<feOffset dy="4"/>
<feGaussianBlur stdDeviation="2"/>
<feColorMatrix type="matrix" values="0 0 0 0 0.376471 0 0 0 0 0.356863 0 0 0 0 1 0 0 0 0.17 0"/>
<feBlend mode="normal" in2="BackgroundImageFix" result="effect1_dropShadow_609_2"/>
<feBlend mode="normal" in="SourceGraphic" in2="effect1_dropShadow_609_2" result="shape"/>
</filter>
<filter id="filter3_d_609_2" x="371" y="213" width="22" height="22" filterUnits="userSpaceOnUse" color-interpolation-filters="sRGB">
<feFlood flood-opacity="0" result="BackgroundImageFix"/>
<feColorMatrix in="SourceAlpha" type="matrix" values="0 0 0 0 0 0 0 0 0 0 0 0 0 0 0 0 0 0 127 0" result="hardAlpha"/>
<feOffset dy="4"/>
<feGaussianBlur stdDeviation="2"/>
<feColorMatrix type="matrix" values="0 0 0 0 0.376471 0 0 0 0 0.356863 0 0 0 0 1 0 0 0 0.17 0"/>
<feBlend mode="normal" in2="BackgroundImageFix" result="effect1_dropShadow_609_2"/>
<feBlend mode="normal" in="SourceGraphic" in2="effect1_dropShadow_609_2" result="shape"/>
</filter>
<filter id="filter4_d_609_2" x="514" y="251" width="22" height="22" filterUnits="userSpaceOnUse" color-interpolation-filters="sRGB">
<feFlood flood-opacity="0" result="BackgroundImageFix"/>
<feColorMatrix in="SourceAlpha" type="matrix" values="0 0 0 0 0 0 0 0 0 0 0 0 0 0 0 0 0 0 127 0" result="hardAlpha"/>
<feOffset dy="4"/>
<feGaussianBlur stdDeviation="2"/>
<feColorMatrix type="matrix" values="0 0 0 0 0.376471 0 0 0 0 0.356863 0 0 0 0 1 0 0 0 0.17 0"/>
<feBlend mode="normal" in2="BackgroundImageFix" result="effect1_dropShadow_609_2"/>
<feBlend mode="normal" in="SourceGraphic" in2="effect1_dropShadow_609_2" result="shape"/>
</filter>
<filter id="filter5_d_609_2" x="605" y="167" width="22" height="22" filterUnits="userSpaceOnUse" color-interpolation-filters="sRGB">
<feFlood flood-opacity="0" result="BackgroundImageFix"/>
<feColorMatrix in="SourceAlpha" type="matrix" values="0 0 0 0 0 0 0 0 0 0 0 0 0 0 0 0 0 0 127 0" result="hardAlpha"/>
<feOffset dy="4"/>
<feGaussianBlur stdDeviation="2"/>
<feColorMatrix type="matrix" values="0 0 0 0 0.376471 0 0 0 0 0.356863 0 0 0 0 1 0 0 0 0.17 0"/>
<feBlend mode="normal" in2="BackgroundImageFix" result="effect1_dropShadow_609_2"/>
<feBlend mode="normal" in="SourceGraphic" in2="effect1_dropShadow_609_2" result="shape"/>
</filter>
<filter id="filter6_d_609_2" x="331" y="141" width="103" height="78" filterUnits="userSpaceOnUse" color-interpolation-filters="sRGB">
<feFlood flood-opacity="0" result="BackgroundImageFix"/>
<feColorMatrix in="SourceAlpha" type="matrix" values="0 0 0 0 0 0 0 0 0 0 0 0 0 0 0 0 0 0 127 0" result="hardAlpha"/>
<feOffset dy="4"/>
<feGaussianBlur stdDeviation="3.5"/>
<feColorMatrix type="matrix" values="0 0 0 0 0.0117647 0 0 0 0 0.00784314 0 0 0 0 0.160784 0 0 0 0.07 0"/>
<feBlend mode="normal" in2="BackgroundImageFix" result="effect1_dropShadow_609_2"/>
<feBlend mode="normal" in="SourceGraphic" in2="effect1_dropShadow_609_2" result="shape"/>
</filter>
<linearGradient id="paint0_linear_609_2" x1="56.3008" y1="168" x2="702" y2="166.407" gradientUnits="userSpaceOnUse">
<stop stop-color="#5EC3FF" stop-opacity="0.04"/>
<stop offset="1" stop-color="#FD5DEF" stop-opacity="0.04"/>
</linearGradient>
<linearGradient id="paint1_linear_609_2" x1="53.7242" y1="159" x2="711.276" y2="159" gradientUnits="userSpaceOnUse">
<stop stop-color="#5BC4FF"/>
<stop offset="1" stop-color="#FF5BEF"/>
</linearGradient>
<clipPath id="clip0_609_2">
<rect width="702" height="408" fill="white"/>
</clipPath>
</defs>
</svg>
